<?xml version="1.0" encoding="UTF-8"?>
<!DOCTYPE svg PUBLIC "-//W3C//DTD SVG 1.1//EN" "http://www.w3.org/Graphics/SVG/1.1/DTD/svg11.dtd">
<svg xmlns="http://www.w3.org/2000/svg" version="1.1" width="300px" height="300px" style="shape-rendering:geometricPrecision; text-rendering:geometricPrecision; image-rendering:optimizeQuality; fill-rule:evenodd; clip-rule:evenodd" xmlns:xlink="http://www.w3.org/1999/xlink">
<g><path style="opacity:1" fill="#fefefe" d="M -0.5,-0.5 C 4.5,-0.5 9.5,-0.5 14.5,-0.5C 14.5,4.5 14.5,9.5 14.5,14.5C 9.5,14.5 4.5,14.5 -0.5,14.5C -0.5,9.5 -0.5,4.5 -0.5,-0.5 Z"/></g>
<g><path style="opacity:1" fill="#dddddd" d="M 14.5,-0.5 C 19.5,-0.5 24.5,-0.5 29.5,-0.5C 29.5,4.5 29.5,9.5 29.5,14.5C 24.5,14.5 19.5,14.5 14.5,14.5C 14.5,9.5 14.5,4.5 14.5,-0.5 Z"/></g>
<g><path style="opacity:1" fill="#fefefe" d="M 29.5,-0.5 C 34.5,-0.5 39.5,-0.5 44.5,-0.5C 44.5,4.5 44.5,9.5 44.5,14.5C 49.5,14.5 54.5,14.5 59.5,14.5C 59.5,15.8333 59.5,17.1667 59.5,18.5C 55.1667,18.5 50.8333,18.5 46.5,18.5C 45.5,18.5 44.5,18.5 43.5,18.5C 44.6843,17.3121 44.6843,16.1455 43.5,15C 38.8452,14.5008 34.1785,14.3342 29.5,14.5C 29.5,9.5 29.5,4.5 29.5,-0.5 Z"/></g>
<g><path style="opacity:1" fill="#dddddd" d="M 44.5,-0.5 C 49.5,-0.5 54.5,-0.5 59.5,-0.5C 59.5,4.5 59.5,9.5 59.5,14.5C 54.5,14.5 49.5,14.5 44.5,14.5C 44.5,9.5 44.5,4.5 44.5,-0.5 Z"/></g>
<g><path style="opacity:1" fill="#fefefe" d="M 59.5,-0.5 C 64.5,-0.5 69.5,-0.5 74.5,-0.5C 74.5,4.5 74.5,9.5 74.5,14.5C 69.5,14.5 64.5,14.5 59.5,14.5C 59.5,9.5 59.5,4.5 59.5,-0.5 Z"/></g>
<g><path style="opacity:1" fill="#dcdcdc" d="M 74.5,-0.5 C 79.5,-0.5 84.5,-0.5 89.5,-0.5C 89.5,4.5 89.5,9.5 89.5,14.5C 84.5,14.5 79.5,14.5 74.5,14.5C 74.5,9.5 74.5,4.5 74.5,-0.5 Z"/></g>
<g><path style="opacity:1" fill="#fafafa" d="M 89.5,-0.5 C 94.5,-0.5 99.5,-0.5 104.5,-0.5C 104.5,4.5 104.5,9.5 104.5,14.5C 109.5,14.5 114.5,14.5 119.5,14.5C 119.5,15.5 119.5,16.5 119.5,17.5C 104.5,17.5 89.5,17.5 74.5,17.5C 74.5,16.5 74.5,15.5 74.5,14.5C 79.5,14.5 84.5,14.5 89.5,14.5C 89.5,9.5 89.5,4.5 89.5,-0.5 Z"/></g>
<g><path style="opacity:1" fill="#dddddd" d="M 104.5,-0.5 C 109.5,-0.5 114.5,-0.5 119.5,-0.5C 119.5,4.5 119.5,9.5 119.5,14.5C 114.5,14.5 109.5,14.5 104.5,14.5C 104.5,9.5 104.5,4.5 104.5,-0.5 Z"/></g>
<g><path style="opacity:1" fill="#fefefe" d="M 119.5,-0.5 C 124.5,-0.5 129.5,-0.5 134.5,-0.5C 134.5,4.5 134.5,9.5 134.5,14.5C 129.5,14.5 124.5,14.5 119.5,14.5C 119.5,9.5 119.5,4.5 119.5,-0.5 Z"/></g>
<g><path style="opacity:1" fill="#fefefe" d="M 239.5,-0.5 C 244.5,-0.5 249.5,-0.5 254.5,-0.5C 254.5,4.5 254.5,9.5 254.5,14.5C 249.5,14.5 244.5,14.5 239.5,14.5C 239.5,9.5 239.5,4.5 239.5,-0.5 Z"/></g>
<g><path style="opacity:1" fill="#dddddd" d="M 254.5,-0.5 C 259.5,-0.5 264.5,-0.5 269.5,-0.5C 269.5,4.5 269.5,9.5 269.5,14.5C 264.5,14.5 259.5,14.5 254.5,14.5C 254.5,9.5 254.5,4.5 254.5,-0.5 Z"/></g>
<g><path style="opacity:1" fill="#dddddd" d="M 284.5,-0.5 C 289.5,-0.5 294.5,-0.5 299.5,-0.5C 299.5,4.5 299.5,9.5 299.5,14.5C 294.5,14.5 289.5,14.5 284.5,14.5C 284.5,9.5 284.5,4.5 284.5,-0.5 Z"/></g>
<g><path style="opacity:1" fill="#dddddd" d="M -0.5,14.5 C 4.5,14.5 9.5,14.5 14.5,14.5C 14.5,19.5 14.5,24.5 14.5,29.5C 9.5,29.5 4.5,29.5 -0.5,29.5C -0.5,24.5 -0.5,19.5 -0.5,14.5 Z"/></g>
<g><path style="opacity:1" fill="#fefefe" d="M 14.5,14.5 C 19.5,14.5 24.5,14.5 29.5,14.5C 29.5,18.5 29.5,22.5 29.5,26.5C 28.8333,27.8333 27.8333,28.8333 26.5,29.5C 22.5,29.5 18.5,29.5 14.5,29.5C 14.5,24.5 14.5,19.5 14.5,14.5 Z"/></g>
<g><path style="opacity:1" fill="#dddddd" d="M 29.5,14.5 C 34.1785,14.3342 38.8452,14.5008 43.5,15C 44.6843,16.1455 44.6843,17.3121 43.5,18.5C 38.5398,20.647 33.8731,23.3136 29.5,26.5C 29.5,22.5 29.5,18.5 29.5,14.5 Z"/></g>
<g><path style="opacity:1" fill="#dddddd" d="M 134.5,-0.5 C 139.5,-0.5 144.5,-0.5 149.5,-0.5C 149.5,4.5 149.5,9.5 149.5,14.5C 154.5,14.5 159.5,14.5 164.5,14.5C 164.5,9.5 164.5,4.5 164.5,-0.5C 169.5,-0.5 174.5,-0.5 179.5,-0.5C 179.5,4.5 179.5,9.5 179.5,14.5C 174.786,14.1734 170.12,14.5067 165.5,15.5C 165.291,16.086 164.957,16.586 164.5,17C 167,17.1667 169.5,17.3333 172,17.5C 177.14,16.7212 182.14,15.7212 187,14.5C 194.132,16.7845 201.632,17.7845 209.5,17.5C 209.5,16.5 209.5,15.5 209.5,14.5C 214.5,14.5 219.5,14.5 224.5,14.5C 224.5,9.5 224.5,4.5 224.5,-0.5C 229.5,-0.5 234.5,-0.5 239.5,-0.5C 239.5,4.5 239.5,9.5 239.5,14.5C 244.5,14.5 249.5,14.5 254.5,14.5C 254.567,15.9587 254.234,17.2921 253.5,18.5C 235.5,18.5 217.5,18.5 199.5,18.5C 152.833,18.5 106.167,18.5 59.5,18.5C 59.5,17.1667 59.5,15.8333 59.5,14.5C 64.5,14.5 69.5,14.5 74.5,14.5C 74.5,15.5 74.5,16.5 74.5,17.5C 89.5,17.5 104.5,17.5 119.5,17.5C 119.5,16.5 119.5,15.5 119.5,14.5C 124.5,14.5 129.5,14.5 134.5,14.5C 134.5,9.5 134.5,4.5 134.5,-0.5 Z"/></g>
<g><path style="opacity:1" fill="#fefefe" d="M 209.5,-0.5 C 214.5,-0.5 219.5,-0.5 224.5,-0.5C 224.5,4.5 224.5,9.5 224.5,14.5C 219.5,14.5 214.5,14.5 209.5,14.5C 209.5,9.5 209.5,4.5 209.5,-0.5 Z"/></g>
<g><path style="opacity:1" fill="#dcdcdc" d="M 194.5,-0.5 C 199.5,-0.5 204.5,-0.5 209.5,-0.5C 209.5,4.5 209.5,9.5 209.5,14.5C 204.5,14.5 199.5,14.5 194.5,14.5C 194.5,9.5 194.5,4.5 194.5,-0.5 Z"/></g>
<g><path style="opacity:1" fill="#fefefe" d="M 179.5,-0.5 C 184.5,-0.5 189.5,-0.5 194.5,-0.5C 194.5,4.5 194.5,9.5 194.5,14.5C 199.5,14.5 204.5,14.5 209.5,14.5C 209.5,15.5 209.5,16.5 209.5,17.5C 201.632,17.7845 194.132,16.7845 187,14.5C 182.14,15.7212 177.14,16.7212 172,17.5C 169.5,17.3333 167,17.1667 164.5,17C 164.957,16.586 165.291,16.086 165.5,15.5C 170.12,14.5067 174.786,14.1734 179.5,14.5C 179.5,9.5 179.5,4.5 179.5,-0.5 Z"/></g>
<g><path style="opacity:1" fill="#fefefe" d="M 149.5,-0.5 C 154.5,-0.5 159.5,-0.5 164.5,-0.5C 164.5,4.5 164.5,9.5 164.5,14.5C 159.5,14.5 154.5,14.5 149.5,14.5C 149.5,9.5 149.5,4.5 149.5,-0.5 Z"/></g>
<g><path style="opacity:1" fill="#fafafa" d="M 254.5,14.5 C 259.5,14.5 264.5,14.5 269.5,14.5C 269.207,18.4367 269.54,22.27 270.5,26C 269.906,26.4643 269.239,26.631 268.5,26.5C 264.618,23.3912 260.284,21.0579 255.5,19.5C 255.158,18.6618 254.492,18.3284 253.5,18.5C 254.234,17.2921 254.567,15.9587 254.5,14.5 Z"/></g>
<g><path style="opacity:1" fill="#dcdcdc" d="M 269.5,14.5 C 274.179,14.3342 278.845,14.5008 283.5,15C 284.469,19.7367 284.803,24.57 284.5,29.5C 280.298,29.1832 276.298,29.5166 272.5,30.5C 271.167,29.1667 269.833,27.8333 268.5,26.5C 269.239,26.631 269.906,26.4643 270.5,26C 269.54,22.27 269.207,18.4367 269.5,14.5 Z"/></g>
<g><path style="opacity:1" fill="#fefefe" d="M 269.5,-0.5 C 274.5,-0.5 279.5,-0.5 284.5,-0.5C 284.5,4.5 284.5,9.5 284.5,14.5C 289.5,14.5 294.5,14.5 299.5,14.5C 299.5,19.5 299.5,24.5 299.5,29.5C 294.5,29.5 289.5,29.5 284.5,29.5C 284.803,24.57 284.469,19.7367 283.5,15C 278.845,14.5008 274.179,14.3342 269.5,14.5C 269.5,9.5 269.5,4.5 269.5,-0.5 Z"/></g>
<g><path style="opacity:1" fill="#5c5b60" d="M 161.5,19.5 C 168.833,19.5 176.167,19.5 183.5,19.5C 180.972,20.1657 178.306,20.8324 175.5,21.5C 176.97,24.273 178.303,27.1063 179.5,30C 178.313,33.3058 179.646,34.8058 183.5,34.5C 183.5,35.5 183.5,36.5 183.5,37.5C 191.372,38.5968 191.372,39.4302 183.5,40C 194.167,40.6667 194.167,41.3333 183.5,42C 186.226,42.1816 188.893,42.6816 191.5,43.5C 187.639,44.5976 187.639,45.4309 191.5,46C 180.894,46.5115 180.894,47.3449 191.5,48.5C 189.713,49.316 188.046,50.316 186.5,51.5C 188.046,52.684 189.713,53.684 191.5,54.5C 184.878,55.5215 184.878,56.5215 191.5,57.5C 191.338,59.5273 191.505,61.5273 192,63.5C 194.806,66.2432 195.64,69.4098 194.5,73C 196.273,77.6483 196.939,82.4816 196.5,87.5C 197.552,87.3505 198.552,87.5172 199.5,88C 195.5,90.3333 195.5,92.6667 199.5,95C 198.552,95.4828 197.552,95.6495 196.5,95.5C 196.012,98.7107 196.679,101.544 198.5,104C 196.798,106.235 195.798,108.735 195.5,111.5C 196.675,111.281 197.675,111.614 198.5,112.5C 196.5,114.5 194.5,116.5 192.5,118.5C 194.276,124.065 192.942,128.731 188.5,132.5C 191.433,134.159 192.1,136.493 190.5,139.5C 188.483,140.174 186.817,141.341 185.5,143C 186.5,143.333 187.5,143.667 188.5,144C 185.898,144.977 183.398,146.144 181,147.5C 180.911,149.113 181.745,150.28 183.5,151C 180.387,150.947 177.887,152.114 176,154.5C 175.215,156.286 174.049,157.786 172.5,159C 173.956,159.423 174.456,160.256 174,161.5C 171.569,163.092 169.735,165.092 168.5,167.5C 154.735,168.822 141.069,168.822 127.5,167.5C 130.167,167.5 132.833,167.5 135.5,167.5C 135.5,165.833 135.5,164.167 135.5,162.5C 138.167,162.5 140.833,162.5 143.5,162.5C 143.932,157.91 146.598,155.577 151.5,155.5C 151.5,154.167 151.5,152.833 151.5,151.5C 155.924,150.181 159.591,147.681 162.5,144C 161.5,143.667 160.5,143.333 159.5,143C 162.096,141.864 164.763,141.031 167.5,140.5C 167.773,138.549 167.107,137.049 165.5,136C 168.5,135.667 171.5,135.333 174.5,135C 172.336,134.086 170.336,132.919 168.5,131.5C 170.583,130.041 172.75,128.708 175,127.5C 176.825,119.54 178.325,111.54 179.5,103.5C 180.675,103.719 181.675,103.386 182.5,102.5C 180.5,100.5 178.5,98.5 176.5,96.5C 178.078,95.7022 179.744,95.2022 181.5,95C 178.833,92.6667 178.833,90.3333 181.5,88C 180.833,87.6667 180.167,87.3333 179.5,87C 181.223,83.5921 180.223,81.2587 176.5,80C 181.756,77.5955 181.756,74.9288 176.5,72C 178.321,69.544 178.988,66.7107 178.5,63.5C 177.5,63.5 176.5,63.5 175.5,63.5C 175.5,60.1667 175.5,56.8333 175.5,53.5C 168.974,52.3034 168.974,50.6367 175.5,48.5C 164.894,47.3449 164.894,46.5115 175.5,46C 172.833,45.6667 170.167,45.3333 167.5,45C 171.272,44.3893 171.272,43.3893 167.5,42C 178.167,41.3333 178.167,40.6667 167.5,40C 167.833,39.6667 168.167,39.3333 168.5,39C 167.773,37.6012 167.273,36.1012 167,34.5C 164.037,32.4714 161.871,29.8047 160.5,26.5C 158.117,27.462 157.117,26.462 157.5,23.5C 153.921,23.6837 150.587,23.017 147.5,21.5C 151.589,20.7843 156.255,20.1177 161.5,19.5 Z"/></g>
<g><path style="opacity:1" fill="#56555a" d="M 183.5,19.5 C 187.846,19.3343 192.179,19.501 196.5,20C 194.833,20.3333 193.167,20.6667 191.5,21C 194.167,21.3333 196.833,21.6667 199.5,22C 193.508,23.0283 193.341,25.195 199,28.5C 199.333,30.8333 199.667,33.1667 200,35.5C 201.918,36.5418 203.751,37.7085 205.5,39C 203.833,39.3333 202.167,39.6667 200.5,40C 202.202,42.2354 203.202,44.7354 203.5,47.5C 207.795,47.2787 208.462,48.6121 205.5,51.5C 206.502,55.5385 208.169,59.5385 210.5,63.5C 209.5,63.5 208.5,63.5 207.5,63.5C 207.351,64.552 207.517,65.552 208,66.5C 210.333,67.5 212,69.1667 213,71.5C 213.499,76.8229 213.666,82.1563 213.5,87.5C 214.833,87.5 216.167,87.5 217.5,87.5C 217.927,90.7877 217.26,93.7877 215.5,96.5C 217.167,97.8333 218.833,99.1667 220.5,100.5C 219.5,101.333 218.5,102.167 217.5,103C 217.895,106.267 218.895,109.267 220.5,112C 218.975,113.009 217.308,113.509 215.5,113.5C 215.5,114.833 215.5,116.167 215.5,117.5C 222.008,118.742 222.008,119.408 215.5,119.5C 215.5,124.833 215.5,130.167 215.5,135.5C 214.167,135.5 212.833,135.5 211.5,135.5C 211.5,138.167 211.5,140.833 211.5,143.5C 212.873,143.343 214.207,143.51 215.5,144C 211.969,145.589 208.302,146.755 204.5,147.5C 206.229,148.597 207.896,149.763 209.5,151C 206.244,152.474 202.911,153.64 199.5,154.5C 199.227,156.451 199.893,157.951 201.5,159C 200.833,159.333 200.167,159.667 199.5,160C 200.833,160.333 202.167,160.667 203.5,161C 200.833,161.333 198.167,161.667 195.5,162C 195.833,162.333 196.167,162.667 196.5,163C 200.967,162.339 205.301,162.506 209.5,163.5C 203.087,165.305 196.421,166.305 189.5,166.5C 183.855,167.134 178.189,167.468 172.5,167.5C 171.167,167.5 169.833,167.5 168.5,167.5C 169.735,165.092 171.569,163.092 174,161.5C 174.456,160.256 173.956,159.423 172.5,159C 174.049,157.786 175.215,156.286 176,154.5C 177.887,152.114 180.387,150.947 183.5,151C 181.745,150.28 180.911,149.113 181,147.5C 183.398,146.144 185.898,144.977 188.5,144C 187.5,143.667 186.5,143.333 185.5,143C 186.817,141.341 188.483,140.174 190.5,139.5C 192.1,136.493 191.433,134.159 188.5,132.5C 192.942,128.731 194.276,124.065 192.5,118.5C 194.5,116.5 196.5,114.5 198.5,112.5C 197.675,111.614 196.675,111.281 195.5,111.5C 195.798,108.735 196.798,106.235 198.5,104C 196.679,101.544 196.012,98.7107 196.5,95.5C 197.552,95.6495 198.552,95.4828 199.5,95C 195.5,92.6667 195.5,90.3333 199.5,88C 198.552,87.5172 197.552,87.3505 196.5,87.5C 196.939,82.4816 196.273,77.6483 194.5,73C 195.64,69.4098 194.806,66.2432 192,63.5C 191.505,61.5273 191.338,59.5273 191.5,57.5C 184.878,56.5215 184.878,55.5215 191.5,54.5C 189.713,53.684 188.046,52.684 186.5,51.5C 188.046,50.316 189.713,49.316 191.5,48.5C 180.894,47.3449 180.894,46.5115 191.5,46C 187.639,45.4309 187.639,44.5976 191.5,43.5C 188.893,42.6816 186.226,42.1816 183.5,42C 194.167,41.3333 194.167,40.6667 183.5,40C 191.372,39.4302 191.372,38.5968 183.5,37.5C 183.5,36.5 183.5,35.5 183.5,34.5C 179.646,34.8058 178.313,33.3058 179.5,30C 178.303,27.1063 176.97,24.273 175.5,21.5C 178.306,20.8324 180.972,20.1657 183.5,19.5 Z"/></g>
<g><path style="opacity:1" fill="#4f4e53" d="M 46.5,18.5 C 50.8333,18.5 55.1667,18.5 59.5,18.5C 106.167,18.5 152.833,18.5 199.5,18.5C 204.651,19.3267 209.984,19.8267 215.5,20C 212.456,20.3589 212.122,21.0255 214.5,22C 212.167,22.3333 209.833,22.6667 207.5,23C 210.146,23.4974 212.813,23.6641 215.5,23.5C 215.336,26.1873 215.503,28.854 216,31.5C 217.983,33.9837 220.15,36.3171 222.5,38.5C 217.932,39.9403 218.099,41.9403 223,44.5C 223.483,45.448 223.649,46.448 223.5,47.5C 225.857,47.3367 228.19,47.5034 230.5,48C 228.336,48.9143 226.336,50.081 224.5,51.5C 226.336,52.919 228.336,54.0857 230.5,55C 229.167,55.3333 227.833,55.6667 226.5,56C 230.69,57.2016 234.023,59.535 236.5,63C 235.552,63.4828 234.552,63.6495 233.5,63.5C 234.191,70.2701 235.525,76.9368 237.5,83.5C 236.197,86.44 236.697,88.7734 239,90.5C 239.483,89.552 239.649,88.552 239.5,87.5C 241.857,87.3367 244.19,87.5034 246.5,88C 244.336,88.9143 242.336,90.081 240.5,91.5C 242.336,92.919 244.336,94.0857 246.5,95C 243.518,95.498 240.518,95.6646 237.5,95.5C 237.5,98.1667 237.5,100.833 237.5,103.5C 245.676,102.385 246.509,104.052 240,108.5C 238.901,105.956 237.735,105.956 236.5,108.5C 237.833,109.5 239.167,110.5 240.5,111.5C 241.495,116.792 241.828,122.125 241.5,127.5C 242.833,127.5 244.167,127.5 245.5,127.5C 244.993,132.869 244.159,138.202 243,143.5C 242,144.167 241,144.833 240,145.5C 239.824,142.118 239.324,138.785 238.5,135.5C 237.217,138.372 237.217,141.205 238.5,144C 236.336,144.914 234.336,146.081 232.5,147.5C 236.082,149.12 239.082,151.453 241.5,154.5C 238.348,154.712 235.015,154.712 231.5,154.5C 231.281,155.675 231.614,156.675 232.5,157.5C 234.768,156.456 237.101,156.289 239.5,157C 237.68,157.2 236.347,158.034 235.5,159.5C 226.866,161.05 218.199,162.384 209.5,163.5C 205.301,162.506 200.967,162.339 196.5,163C 196.167,162.667 195.833,162.333 195.5,162C 198.167,161.667 200.833,161.333 203.5,161C 202.167,160.667 200.833,160.333 199.5,160C 200.167,159.667 200.833,159.333 201.5,159C 199.893,157.951 199.227,156.451 199.5,154.5C 202.911,153.64 206.244,152.474 209.5,151C 207.896,149.763 206.229,148.597 204.5,147.5C 208.302,146.755 211.969,145.589 215.5,144C 214.207,143.51 212.873,143.343 211.5,143.5C 211.5,140.833 211.5,138.167 211.5,135.5C 212.833,135.5 214.167,135.5 215.5,135.5C 215.5,130.167 215.5,124.833 215.5,119.5C 222.008,119.408 222.008,118.742 215.5,117.5C 215.5,116.167 215.5,114.833 215.5,113.5C 217.308,113.509 218.975,113.009 220.5,112C 218.895,109.267 217.895,106.267 217.5,103C 218.5,102.167 219.5,101.333 220.5,100.5C 218.833,99.1667 217.167,97.8333 215.5,96.5C 217.26,93.7877 217.927,90.7877 217.5,87.5C 216.167,87.5 214.833,87.5 213.5,87.5C 213.666,82.1563 213.499,76.8229 213,71.5C 212,69.1667 210.333,67.5 208,66.5C 207.517,65.552 207.351,64.552 207.5,63.5C 208.5,63.5 209.5,63.5 210.5,63.5C 208.169,59.5385 206.502,55.5385 205.5,51.5C 208.462,48.6121 207.795,47.2787 203.5,47.5C 203.202,44.7354 202.202,42.2354 200.5,40C 202.167,39.6667 203.833,39.3333 205.5,39C 203.751,37.7085 201.918,36.5418 200,35.5C 199.667,33.1667 199.333,30.8333 199,28.5C 193.341,25.195 193.508,23.0283 199.5,22C 196.833,21.6667 194.167,21.3333 191.5,21C 193.167,20.6667 194.833,20.3333 196.5,20C 192.179,19.501 187.846,19.3343 183.5,19.5C 176.167,19.5 168.833,19.5 161.5,19.5C 152.167,19.5 142.833,19.5 133.5,19.5C 104.329,19.8314 75.3285,19.498 46.5,18.5 Z"/></g>
<g><path style="opacity:1" fill="#48474d" d="M 199.5,18.5 C 217.5,18.5 235.5,18.5 253.5,18.5C 254.492,18.3284 255.158,18.6618 255.5,19.5C 253.723,19.7863 252.056,20.4529 250.5,21.5C 249.558,21.3918 248.725,21.0585 248,20.5C 245.26,21.2822 242.426,21.7822 239.5,22C 244.291,23.0293 248.957,23.196 253.5,22.5C 253.784,25.7766 253.451,28.9433 252.5,32C 254.5,34.3333 256.5,36.6667 258.5,39C 257.376,39.2492 256.376,39.7492 255.5,40.5C 257.287,41.316 258.954,42.316 260.5,43.5C 258.954,44.684 257.287,45.684 255.5,46.5C 257.461,49.4628 259.794,52.1294 262.5,54.5C 261.675,55.3857 260.675,55.719 259.5,55.5C 259.5,58.1667 259.5,60.8333 259.5,63.5C 258.448,63.3505 257.448,63.5172 256.5,64C 258.664,64.9143 260.664,66.081 262.5,67.5C 260.664,68.919 258.664,70.0857 256.5,71C 259.39,74.1254 262.723,76.792 266.5,79C 265.556,81.7191 265.223,84.5525 265.5,87.5C 267.5,87.5 269.5,87.5 271.5,87.5C 271.5,95.5 271.5,103.5 271.5,111.5C 272.833,111.5 274.167,111.5 275.5,111.5C 274.167,119.5 272.833,127.5 271.5,135.5C 272.833,135.5 274.167,135.5 275.5,135.5C 275.012,138.711 275.679,141.544 277.5,144C 276.542,145.147 276.875,146.147 278.5,147C 275.809,147.156 273.476,147.989 271.5,149.5C 260.246,153.828 248.579,157.161 236.5,159.5C 236.167,159.5 235.833,159.5 235.5,159.5C 236.347,158.034 237.68,157.2 239.5,157C 237.101,156.289 234.768,156.456 232.5,157.5C 231.614,156.675 231.281,155.675 231.5,154.5C 235.015,154.712 238.348,154.712 241.5,154.5C 239.082,151.453 236.082,149.12 232.5,147.5C 234.336,146.081 236.336,144.914 238.5,144C 237.217,141.205 237.217,138.372 238.5,135.5C 239.324,138.785 239.824,142.118 240,145.5C 241,144.833 242,144.167 243,143.5C 244.159,138.202 244.993,132.869 245.5,127.5C 244.167,127.5 242.833,127.5 241.5,127.5C 241.828,122.125 241.495,116.792 240.5,111.5C 239.167,110.5 237.833,109.5 236.5,108.5C 237.735,105.956 238.901,105.956 240,108.5C 246.509,104.052 245.676,102.385 237.5,103.5C 237.5,100.833 237.5,98.1667 237.5,95.5C 240.518,95.6646 243.518,95.498 246.5,95C 244.336,94.0857 242.336,92.919 240.5,91.5C 242.336,90.081 244.336,88.9143 246.5,88C 244.19,87.5034 241.857,87.3367 239.5,87.5C 239.649,88.552 239.483,89.552 239,90.5C 236.697,88.7734 236.197,86.44 237.5,83.5C 235.525,76.9368 234.191,70.2701 233.5,63.5C 234.552,63.6495 235.552,63.4828 236.5,63C 234.023,59.535 230.69,57.2016 226.5,56C 227.833,55.6667 229.167,55.3333 230.5,55C 228.336,54.0857 226.336,52.919 224.5,51.5C 226.336,50.081 228.336,48.9143 230.5,48C 228.19,47.5034 225.857,47.3367 223.5,47.5C 223.649,46.448 223.483,45.448 223,44.5C 218.099,41.9403 217.932,39.9403 222.5,38.5C 220.15,36.3171 217.983,33.9837 216,31.5C 215.503,28.854 215.336,26.1873 215.5,23.5C 212.813,23.6641 210.146,23.4974 207.5,23C 209.833,22.6667 212.167,22.3333 214.5,22C 212.122,21.0255 212.456,20.3589 215.5,20C 209.984,19.8267 204.651,19.3267 199.5,18.5 Z"/></g>
<g><path style="opacity:1" fill="#6d6d6f" d="M 43.5,18.5 C 44.5,18.5 45.5,18.5 46.5,18.5C 75.3285,19.498 104.329,19.8314 133.5,19.5C 126.345,20.3288 119.011,20.8288 111.5,21C 116.833,21.3333 122.167,21.6667 127.5,22C 124.905,22.2256 122.405,22.7256 120,23.5C 117.263,22.3895 114.429,22.2228 111.5,23C 116.752,24.8128 122.085,26.3128 127.5,27.5C 127.5,28.8333 127.5,30.1667 127.5,31.5C 128.5,31.5 129.5,31.5 130.5,31.5C 131.167,34.1667 131.833,36.8333 132.5,39.5C 130.801,39.3398 129.134,39.5065 127.5,40C 130.167,40.3333 132.833,40.6667 135.5,41C 133.5,41.3333 131.5,41.6667 129.5,42C 132.838,42.5937 135.838,43.2604 138.5,44C 139.257,45.5122 140.257,46.8455 141.5,48C 140.5,48.8333 139.5,49.6667 138.5,50.5C 142.05,53.8452 146.383,55.3452 151.5,55C 145.493,57.2936 145.327,59.7936 151,62.5C 152.018,68.1566 152.851,73.8232 153.5,79.5C 152.448,79.3505 151.448,79.5172 150.5,80C 152.547,81.0726 154.547,82.2393 156.5,83.5C 154.547,84.7607 152.547,85.9274 150.5,87C 151.5,87.3333 152.5,87.6667 153.5,88C 150.167,88.3333 146.833,88.6667 143.5,89C 154.041,89.3861 154.041,90.3861 143.5,92C 151.5,92.6667 151.5,93.3333 143.5,94C 156.833,94.6667 156.833,95.3333 143.5,96C 154.167,96.6667 154.167,97.3333 143.5,98C 149.961,98.5599 149.961,99.5599 143.5,101C 154.167,101.667 154.167,102.333 143.5,103C 153.904,103.276 153.904,104.443 143.5,106.5C 143.227,108.451 143.893,109.951 145.5,111C 143.679,113.456 143.012,116.289 143.5,119.5C 140.348,118.959 137.848,119.959 136,122.5C 135.667,122.167 135.333,121.833 135,121.5C 133.795,123.196 133.295,124.863 133.5,126.5C 128.793,121.795 124.46,116.795 120.5,111.5C 126.789,110.673 127.455,108.84 122.5,106C 127.135,104.144 128.802,100.644 127.5,95.5C 138.146,95.3293 138.146,94.8293 127.5,94C 130.167,93.6667 132.833,93.3333 135.5,93C 129.771,92.3285 129.437,91.3285 134.5,90C 132.167,89.6667 129.833,89.3333 127.5,89C 138.106,88.4885 138.106,87.6551 127.5,86.5C 129.287,85.684 130.954,84.684 132.5,83.5C 130.954,82.316 129.287,81.316 127.5,80.5C 130.167,79.8333 132.833,79.1667 135.5,78.5C 132.721,77.6112 130.055,76.4445 127.5,75C 128.833,74 130.167,73 131.5,72C 127.639,71.4309 127.639,70.5976 131.5,69.5C 129.851,68.8524 128.518,67.8524 127.5,66.5C 129.882,64.9293 132.549,64.096 135.5,64C 132.854,63.5026 130.187,63.3359 127.5,63.5C 126.063,61.0402 125.063,58.3735 124.5,55.5C 128.182,55.6653 131.848,55.4986 135.5,55C 129.837,54.9176 124.504,53.5843 119.5,51C 120.579,50.044 121.745,49.2106 123,48.5C 123.617,47.5509 123.451,46.7175 122.5,46C 116.803,41.9847 110.47,39.9847 103.5,40C 106.146,39.5026 108.813,39.3359 111.5,39.5C 111.649,38.448 111.483,37.448 111,36.5C 108.833,35.6667 107.333,34.1667 106.5,32C 103.833,31.6667 101.167,31.3333 98.5,31C 99.3366,29.9887 99.67,28.8221 99.5,27.5C 83.5439,25.0024 67.5439,24.8358 51.5,27C 49.4078,27.9525 49.0745,29.2859 50.5,31C 43.821,31.0203 38.4877,33.687 34.5,39C 36.1667,39.3333 37.8333,39.6667 39.5,40C 28.8333,40.6667 28.8333,41.3333 39.5,42C 36.3248,41.9467 33.6581,42.78 31.5,44.5C 28.7426,44.3784 26.7426,45.5451 25.5,48C 29.4551,50.6417 28.9551,52.475 24,53.5C 23.6667,53.1667 23.3333,52.8333 23,52.5C 22.7308,55.2798 23.8975,57.4464 26.5,59C 24.4299,59.9476 22.9299,61.4476 22,63.5C 21.6667,60.8333 21.3333,58.1667 21,55.5C 20.3035,59.5351 20.4701,63.5351 21.5,67.5C 21.3318,69.1705 20.6651,70.5039 19.5,71.5C 19.8261,62.9832 19.4927,54.6499 18.5,46.5C 18.5,45.5 18.5,44.5 18.5,43.5C 20.6131,38.618 23.2797,33.9513 26.5,29.5C 27.8333,28.8333 28.8333,27.8333 29.5,26.5C 33.8731,23.3136 38.5398,20.647 43.5,18.5 Z"/></g>
<g><path style="opacity:1" fill="#626166" d="M 147.5,21.5 C 150.587,23.017 153.921,23.6837 157.5,23.5C 157.117,26.462 158.117,27.462 160.5,26.5C 161.871,29.8047 164.037,32.4714 167,34.5C 167.273,36.1012 167.773,37.6012 168.5,39C 168.167,39.3333 167.833,39.6667 167.5,40C 178.167,40.6667 178.167,41.3333 167.5,42C 171.272,43.3893 171.272,44.3893 167.5,45C 170.167,45.3333 172.833,45.6667 175.5,46C 164.894,46.5115 164.894,47.3449 175.5,48.5C 168.974,50.6367 168.974,52.3034 175.5,53.5C 175.5,56.8333 175.5,60.1667 175.5,63.5C 176.5,63.5 177.5,63.5 178.5,63.5C 178.988,66.7107 178.321,69.544 176.5,72C 181.756,74.9288 181.756,77.5955 176.5,80C 180.223,81.2587 181.223,83.5921 179.5,87C 180.167,87.3333 180.833,87.6667 181.5,88C 178.833,90.3333 178.833,92.6667 181.5,95C 179.744,95.2022 178.078,95.7022 176.5,96.5C 178.5,98.5 180.5,100.5 182.5,102.5C 181.675,103.386 180.675,103.719 179.5,103.5C 178.325,111.54 176.825,119.54 175,127.5C 172.75,128.708 170.583,130.041 168.5,131.5C 170.336,132.919 172.336,134.086 174.5,135C 171.5,135.333 168.5,135.667 165.5,136C 167.107,137.049 167.773,138.549 167.5,140.5C 164.763,141.031 162.096,141.864 159.5,143C 160.5,143.333 161.5,143.667 162.5,144C 159.591,147.681 155.924,150.181 151.5,151.5C 151.5,152.833 151.5,154.167 151.5,155.5C 146.598,155.577 143.932,157.91 143.5,162.5C 140.833,162.5 138.167,162.5 135.5,162.5C 135.5,164.167 135.5,165.833 135.5,167.5C 132.833,167.5 130.167,167.5 127.5,167.5C 121.102,167.294 114.769,166.627 108.5,165.5C 107.264,166.246 105.93,166.579 104.5,166.5C 106.5,163.833 108.833,161.5 111.5,159.5C 116.992,159.168 122.325,159.168 127.5,159.5C 126.959,156.348 127.959,153.848 130.5,152C 133.5,151.667 136.5,151.333 139.5,151C 138.167,150 136.833,149 135.5,148C 140.298,146.025 145.298,144.692 150.5,144C 148.167,143.667 145.833,143.333 143.5,143C 154.167,142.333 154.167,141.667 143.5,141C 147.272,139.611 147.272,138.611 143.5,138C 154.167,137.333 154.167,136.667 143.5,136C 146.833,135.667 150.167,135.333 153.5,135C 151.893,133.951 151.227,132.451 151.5,130.5C 154.237,129.969 156.904,129.136 159.5,128C 153.666,127.632 153.499,125.799 159,122.5C 159.499,118.848 159.665,115.182 159.5,111.5C 160.5,111.5 161.5,111.5 162.5,111.5C 163.901,107.624 164.901,103.624 165.5,99.5C 163.349,94.4531 164.682,90.6197 169.5,88C 163.282,87.5704 162.949,86.0704 168.5,83.5C 167.167,82.5 165.833,81.5 164.5,80.5C 165.454,74.8955 165.788,69.2289 165.5,63.5C 164.167,63.5 162.833,63.5 161.5,63.5C 161.5,60.8333 161.5,58.1667 161.5,55.5C 162.873,55.6567 164.207,55.49 165.5,55C 162.437,54.4257 159.771,53.0924 157.5,51C 158.973,50.2904 159.64,49.1238 159.5,47.5C 158.448,47.6495 157.448,47.4828 156.5,47C 154.582,43.5377 151.582,41.8711 147.5,42C 152.508,41.1307 152.175,40.4641 146.5,40C 148.134,39.5065 149.801,39.3398 151.5,39.5C 151.66,37.8008 151.494,36.1341 151,34.5C 147.154,31.9876 143.988,28.8209 141.5,25C 143.223,23.2509 145.223,22.0842 147.5,21.5 Z"/></g>
<g><path style="opacity:1" fill="#737375" d="M 120.5,111.5 C 116.532,107.361 112.699,103.027 109,98.5C 107.871,96.8588 106.371,95.8588 104.5,95.5C 104.5,94.8333 104.5,94.1667 104.5,93.5C 106.857,93.6633 109.19,93.4966 111.5,93C 108.833,92 108.833,91 111.5,90C 103.166,89.4795 102.833,88.8128 110.5,88C 108.068,86.9125 108.402,86.4125 111.5,86.5C 111.5,84.5 111.5,82.5 111.5,80.5C 110.448,80.6495 109.448,80.4828 108.5,80C 111.167,79.6667 113.833,79.3333 116.5,79C 114.975,77.9914 113.308,77.4914 111.5,77.5C 111.5,75.5 111.5,73.5 111.5,71.5C 113.199,71.6602 114.866,71.4935 116.5,71C 113.898,70.0229 111.398,68.8563 109,67.5C 110.309,65.92 111.142,63.92 111.5,61.5C 108.575,61.5402 105.909,60.7068 103.5,59C 105.349,57.907 107.016,56.5737 108.5,55C 105.56,53.8476 102.56,52.8476 99.5,52C 99.0426,51.586 98.7093,51.086 98.5,50.5C 99.5,49.6667 100.5,48.8333 101.5,48C 96.8333,47.6667 92.1667,47.3333 87.5,47C 98.1667,46.3333 98.1667,45.6667 87.5,45C 89.5,44.6667 91.5,44.3333 93.5,44C 90.3999,42.4771 87.0666,41.6438 83.5,41.5C 76.4689,42.7122 69.4689,42.7122 62.5,41.5C 59.6272,42.7749 56.6272,43.6082 53.5,44C 54.1667,44.3333 54.8333,44.6667 55.5,45C 44.8333,45.6667 44.8333,46.3333 55.5,47C 44.8333,47.6667 44.8333,48.3333 55.5,49C 52.8333,49.3333 50.1667,49.6667 47.5,50C 48.8333,50.3333 50.1667,50.6667 51.5,51C 48.0791,52.4748 44.7458,54.1414 41.5,56C 42.5,56.8333 43.5,57.6667 44.5,58.5C 42.4926,59.9078 40.4926,61.4078 38.5,63C 39.724,65.3895 40.224,67.8895 40,70.5C 38.1316,69.3281 36.2983,69.4947 34.5,71C 36.5,71.6667 37.8333,73 38.5,75C 37.0158,76.5737 35.3492,77.907 33.5,79C 35.5767,79.1922 37.5767,79.6922 39.5,80.5C 37.7127,81.316 36.0461,82.316 34.5,83.5C 37.2016,85.3466 40.2016,86.5133 43.5,87C 39.5138,87.4988 35.5138,87.6655 31.5,87.5C 31.5,84.8333 31.5,82.1667 31.5,79.5C 29.8008,79.6602 28.1341,79.4935 26.5,79C 29.038,77.3695 31.7046,76.0361 34.5,75C 32.5,73.6667 30.5,72.3333 28.5,71C 36.1792,68.0728 36.1792,65.7395 28.5,64C 29.0253,63.3076 29.6919,62.8076 30.5,62.5C 31.7362,63.2458 33.0695,63.5792 34.5,63.5C 35.1667,60.8333 35.8333,58.1667 36.5,55.5C 34.8008,55.6602 33.1341,55.4935 31.5,55C 34.1667,54.6667 36.8333,54.3333 39.5,54C 37.1667,53.6667 34.8333,53.3333 32.5,53C 35.5,52.6667 38.5,52.3333 41.5,52C 42.8146,50.6054 42.4812,49.6054 40.5,49C 37.5,48.6667 34.5,48.3333 31.5,48C 34.1667,47.3333 34.1667,46.6667 31.5,46C 35.449,45.1932 35.449,44.6932 31.5,44.5C 33.6581,42.78 36.3248,41.9467 39.5,42C 28.8333,41.3333 28.8333,40.6667 39.5,40C 37.8333,39.6667 36.1667,39.3333 34.5,39C 38.4877,33.687 43.821,31.0203 50.5,31C 49.0745,29.2859 49.4078,27.9525 51.5,27C 67.5439,24.8358 83.5439,25.0024 99.5,27.5C 99.67,28.8221 99.3366,29.9887 98.5,31C 101.167,31.3333 103.833,31.6667 106.5,32C 107.333,34.1667 108.833,35.6667 111,36.5C 111.483,37.448 111.649,38.448 111.5,39.5C 108.813,39.3359 106.146,39.5026 103.5,40C 110.47,39.9847 116.803,41.9847 122.5,46C 123.451,46.7175 123.617,47.5509 123,48.5C 121.745,49.2106 120.579,50.044 119.5,51C 124.504,53.5843 129.837,54.9176 135.5,55C 131.848,55.4986 128.182,55.6653 124.5,55.5C 125.063,58.3735 126.063,61.0402 127.5,63.5C 130.187,63.3359 132.854,63.5026 135.5,64C 132.549,64.096 129.882,64.9293 127.5,66.5C 128.518,67.8524 129.851,68.8524 131.5,69.5C 127.639,70.5976 127.639,71.4309 131.5,72C 130.167,73 128.833,74 127.5,75C 130.055,76.4445 132.721,77.6112 135.5,78.5C 132.833,79.1667 130.167,79.8333 127.5,80.5C 129.287,81.316 130.954,82.316 132.5,83.5C 130.954,84.684 129.287,85.684 127.5,86.5C 138.106,87.6551 138.106,88.4885 127.5,89C 129.833,89.3333 132.167,89.6667 134.5,90C 129.437,91.3285 129.771,92.3285 135.5,93C 132.833,93.3333 130.167,93.6667 127.5,94C 138.146,94.8293 138.146,95.3293 127.5,95.5C 128.802,100.644 127.135,104.144 122.5,106C 127.455,108.84 126.789,110.673 120.5,111.5 Z"/></g>
<g><path style="opacity:1" fill="#fefefe" d="M -0.5,29.5 C 4.5,29.5 9.5,29.5 14.5,29.5C 14.5,34.5 14.5,39.5 14.5,44.5C 9.5,44.5 4.5,44.5 -0.5,44.5C -0.5,39.5 -0.5,34.5 -0.5,29.5 Z"/></g>
<g><path style="opacity:1" fill="#dcdcdc" d="M 14.5,29.5 C 18.5,29.5 22.5,29.5 26.5,29.5C 23.2797,33.9513 20.6131,38.618 18.5,43.5C 17.8897,41.1497 17.5563,41.483 17.5,44.5C 16.5,44.5 15.5,44.5 14.5,44.5C 14.5,39.5 14.5,34.5 14.5,29.5 Z"/></g>
<g><path style="opacity:1" fill="#dddddd" d="M 284.5,29.5 C 289.5,29.5 294.5,29.5 299.5,29.5C 299.5,34.5 299.5,39.5 299.5,44.5C 294.5,44.5 289.5,44.5 284.5,44.5C 284.5,39.5 284.5,34.5 284.5,29.5 Z"/></g>
<g><path style="opacity:1" fill="#79797a" d="M 104.5,93.5 C 96.8283,85.9927 89.6616,77.9927 83,69.5C 82.1841,68.1772 81.0174,67.5106 79.5,67.5C 68.6794,66.5054 57.6794,66.1721 46.5,66.5C 46.2627,67.791 46.596,68.791 47.5,69.5C 61.5074,84.1748 75.174,99.1748 88.5,114.5C 92.4246,119.323 96.5913,123.99 101,128.5C 101.585,129.998 101.085,130.998 99.5,131.5C 99.5,131.167 99.5,130.833 99.5,130.5C 94.8881,123.222 89.2214,116.888 82.5,111.5C 82.5,112.167 82.5,112.833 82.5,113.5C 82.631,114.239 82.4643,114.906 82,115.5C 81.6667,114.5 81.3333,113.5 81,112.5C 79.6472,113.704 77.9806,114.371 76,114.5C 67.2332,112.867 58.3999,111.7 49.5,111C 50.5,110.167 51.5,109.333 52.5,108.5C 50.8333,107.167 49.1667,105.833 47.5,104.5C 48.376,103.749 49.376,103.249 50.5,103C 46.7015,102.04 43.0349,100.706 39.5,99C 40.8333,98 42.1667,97 43.5,96C 38.8333,95.6667 34.1667,95.3333 29.5,95C 32.8333,94.6667 36.1667,94.3333 39.5,94C 31.5794,93.48 31.5794,92.6466 39.5,91.5C 31.5794,90.3534 31.5794,89.52 39.5,89C 35.3602,88.9793 32.6935,88.4793 31.5,87.5C 35.5138,87.6655 39.5138,87.4988 43.5,87C 40.2016,86.5133 37.2016,85.3466 34.5,83.5C 36.0461,82.316 37.7127,81.316 39.5,80.5C 37.5767,79.6922 35.5767,79.1922 33.5,79C 35.3492,77.907 37.0158,76.5737 38.5,75C 37.8333,73 36.5,71.6667 34.5,71C 36.2983,69.4947 38.1316,69.3281 40,70.5C 40.224,67.8895 39.724,65.3895 38.5,63C 40.4926,61.4078 42.4926,59.9078 44.5,58.5C 43.5,57.6667 42.5,56.8333 41.5,56C 44.7458,54.1414 48.0791,52.4748 51.5,51C 50.1667,50.6667 48.8333,50.3333 47.5,50C 50.1667,49.6667 52.8333,49.3333 55.5,49C 44.8333,48.3333 44.8333,47.6667 55.5,47C 44.8333,46.3333 44.8333,45.6667 55.5,45C 54.8333,44.6667 54.1667,44.3333 53.5,44C 56.6272,43.6082 59.6272,42.7749 62.5,41.5C 69.4689,42.7122 76.4689,42.7122 83.5,41.5C 87.0666,41.6438 90.3999,42.4771 93.5,44C 91.5,44.3333 89.5,44.6667 87.5,45C 98.1667,45.6667 98.1667,46.3333 87.5,47C 92.1667,47.3333 96.8333,47.6667 101.5,48C 100.5,48.8333 99.5,49.6667 98.5,50.5C 98.7093,51.086 99.0426,51.586 99.5,52C 102.56,52.8476 105.56,53.8476 108.5,55C 107.016,56.5737 105.349,57.907 103.5,59C 105.909,60.7068 108.575,61.5402 111.5,61.5C 111.142,63.92 110.309,65.92 109,67.5C 111.398,68.8563 113.898,70.0229 116.5,71C 114.866,71.4935 113.199,71.6602 111.5,71.5C 111.5,73.5 111.5,75.5 111.5,77.5C 113.308,77.4914 114.975,77.9914 116.5,79C 113.833,79.3333 111.167,79.6667 108.5,80C 109.448,80.4828 110.448,80.6495 111.5,80.5C 111.5,82.5 111.5,84.5 111.5,86.5C 108.402,86.4125 108.068,86.9125 110.5,88C 102.833,88.8128 103.166,89.4795 111.5,90C 108.833,91 108.833,92 111.5,93C 109.19,93.4966 106.857,93.6633 104.5,93.5 Z"/></g>
<g><path style="opacity:1" fill="#666669" d="M 133.5,19.5 C 142.833,19.5 152.167,19.5 161.5,19.5C 156.255,20.1177 151.589,20.7843 147.5,21.5C 145.223,22.0842 143.223,23.2509 141.5,25C 143.988,28.8209 147.154,31.9876 151,34.5C 151.494,36.1341 151.66,37.8008 151.5,39.5C 149.801,39.3398 148.134,39.5065 146.5,40C 152.175,40.4641 152.508,41.1307 147.5,42C 151.582,41.8711 154.582,43.5377 156.5,47C 157.448,47.4828 158.448,47.6495 159.5,47.5C 159.64,49.1238 158.973,50.2904 157.5,51C 159.771,53.0924 162.437,54.4257 165.5,55C 164.207,55.49 162.873,55.6567 161.5,55.5C 161.5,58.1667 161.5,60.8333 161.5,63.5C 162.833,63.5 164.167,63.5 165.5,63.5C 165.788,69.2289 165.454,74.8955 164.5,80.5C 165.833,81.5 167.167,82.5 168.5,83.5C 162.949,86.0704 163.282,87.5704 169.5,88C 164.682,90.6197 163.349,94.4531 165.5,99.5C 164.901,103.624 163.901,107.624 162.5,111.5C 161.5,111.5 160.5,111.5 159.5,111.5C 159.665,115.182 159.499,118.848 159,122.5C 153.499,125.799 153.666,127.632 159.5,128C 156.904,129.136 154.237,129.969 151.5,130.5C 151.227,132.451 151.893,133.951 153.5,135C 150.167,135.333 146.833,135.667 143.5,136C 154.167,136.667 154.167,137.333 143.5,138C 147.272,138.611 147.272,139.611 143.5,141C 154.167,141.667 154.167,142.333 143.5,143C 145.833,143.333 148.167,143.667 150.5,144C 145.298,144.692 140.298,146.025 135.5,148C 136.833,149 138.167,150 139.5,151C 136.5,151.333 133.5,151.667 130.5,152C 127.959,153.848 126.959,156.348 127.5,159.5C 122.325,159.168 116.992,159.168 111.5,159.5C 118.729,150.096 126.562,141.096 135,132.5C 135.47,131.423 135.303,130.423 134.5,129.5C 134.938,129.565 135.272,129.399 135.5,129C 134.619,128.292 133.953,127.458 133.5,126.5C 133.295,124.863 133.795,123.196 135,121.5C 135.333,121.833 135.667,122.167 136,122.5C 137.848,119.959 140.348,118.959 143.5,119.5C 143.012,116.289 143.679,113.456 145.5,111C 143.893,109.951 143.227,108.451 143.5,106.5C 153.904,104.443 153.904,103.276 143.5,103C 154.167,102.333 154.167,101.667 143.5,101C 149.961,99.5599 149.961,98.5599 143.5,98C 154.167,97.3333 154.167,96.6667 143.5,96C 156.833,95.3333 156.833,94.6667 143.5,94C 151.5,93.3333 151.5,92.6667 143.5,92C 154.041,90.3861 154.041,89.3861 143.5,89C 146.833,88.6667 150.167,88.3333 153.5,88C 152.5,87.6667 151.5,87.3333 150.5,87C 152.547,85.9274 154.547,84.7607 156.5,83.5C 154.547,82.2393 152.547,81.0726 150.5,80C 151.448,79.5172 152.448,79.3505 153.5,79.5C 152.851,73.8232 152.018,68.1566 151,62.5C 145.327,59.7936 145.493,57.2936 151.5,55C 146.383,55.3452 142.05,53.8452 138.5,50.5C 139.5,49.6667 140.5,48.8333 141.5,48C 140.257,46.8455 139.257,45.5122 138.5,44C 135.838,43.2604 132.838,42.5937 129.5,42C 131.5,41.6667 133.5,41.3333 135.5,41C 132.833,40.6667 130.167,40.3333 127.5,40C 129.134,39.5065 130.801,39.3398 132.5,39.5C 131.833,36.8333 131.167,34.1667 130.5,31.5C 129.5,31.5 128.5,31.5 127.5,31.5C 127.5,30.1667 127.5,28.8333 127.5,27.5C 122.085,26.3128 116.752,24.8128 111.5,23C 114.429,22.2228 117.263,22.3895 120,23.5C 122.405,22.7256 124.905,22.2256 127.5,22C 122.167,21.6667 116.833,21.3333 111.5,21C 119.011,20.8288 126.345,20.3288 133.5,19.5 Z"/></g>
<g><path style="opacity:1" fill="#dddddd" d="M -0.5,44.5 C 4.5,44.5 9.5,44.5 14.5,44.5C 14.5,49.5 14.5,54.5 14.5,59.5C 9.5,59.5 4.5,59.5 -0.5,59.5C -0.5,54.5 -0.5,49.5 -0.5,44.5 Z"/></g>
<g><path style="opacity:1" fill="#fdfdfd" d="M 18.5,43.5 C 18.5,44.5 18.5,45.5 18.5,46.5C 17.5151,50.6344 17.1818,54.9677 17.5,59.5C 16.5,59.5 15.5,59.5 14.5,59.5C 14.5,54.5 14.5,49.5 14.5,44.5C 15.5,44.5 16.5,44.5 17.5,44.5C 17.5563,41.483 17.8897,41.1497 18.5,43.5 Z"/></g>
<g><path style="opacity:1" fill="#727274" d="M 31.5,44.5 C 35.449,44.6932 35.449,45.1932 31.5,46C 34.1667,46.6667 34.1667,47.3333 31.5,48C 34.5,48.3333 37.5,48.6667 40.5,49C 42.4812,49.6054 42.8146,50.6054 41.5,52C 38.5,52.3333 35.5,52.6667 32.5,53C 34.8333,53.3333 37.1667,53.6667 39.5,54C 36.8333,54.3333 34.1667,54.6667 31.5,55C 33.1341,55.4935 34.8008,55.6602 36.5,55.5C 35.8333,58.1667 35.1667,60.8333 34.5,63.5C 33.0695,63.5792 31.7362,63.2458 30.5,62.5C 29.6919,62.8076 29.0253,63.3076 28.5,64C 36.1792,65.7395 36.1792,68.0728 28.5,71C 30.5,72.3333 32.5,73.6667 34.5,75C 31.7046,76.0361 29.038,77.3695 26.5,79C 28.1341,79.4935 29.8008,79.6602 31.5,79.5C 31.5,82.1667 31.5,84.8333 31.5,87.5C 32.6935,88.4793 35.3602,88.9793 39.5,89C 31.5794,89.52 31.5794,90.3534 39.5,91.5C 31.5794,92.6466 31.5794,93.48 39.5,94C 36.1667,94.3333 32.8333,94.6667 29.5,95C 34.1667,95.3333 38.8333,95.6667 43.5,96C 42.1667,97 40.8333,98 39.5,99C 43.0349,100.706 46.7015,102.04 50.5,103C 49.376,103.249 48.376,103.749 47.5,104.5C 49.1667,105.833 50.8333,107.167 52.5,108.5C 51.5,109.333 50.5,110.167 49.5,111C 58.3999,111.7 67.2332,112.867 76,114.5C 77.9806,114.371 79.6472,113.704 81,112.5C 81.3333,113.5 81.6667,114.5 82,115.5C 82.4643,114.906 82.631,114.239 82.5,113.5C 87.8333,119.167 93.1667,124.833 98.5,130.5C 95.1667,134.167 91.8333,137.833 88.5,141.5C 74.7199,141.069 61.0532,139.569 47.5,137C 50.1667,136.667 52.8333,136.333 55.5,136C 47.5,135.667 39.5,135.333 31.5,135C 34.146,134.503 36.8127,134.336 39.5,134.5C 39.719,133.325 39.3857,132.325 38.5,131.5C 36.2241,130.787 33.8907,130.287 31.5,130C 42.1667,129.333 42.1667,128.667 31.5,128C 33.1667,127.667 34.8333,127.333 36.5,127C 33.5597,125.848 30.5597,124.848 27.5,124C 27.0426,123.586 26.7093,123.086 26.5,122.5C 30.4635,120.225 29.9635,118.892 25,118.5C 24.228,118.645 23.5613,118.978 23,119.5C 22.9741,115.892 22.1407,112.558 20.5,109.5C 19.5009,96.8508 19.1676,84.1842 19.5,71.5C 20.6651,70.5039 21.3318,69.1705 21.5,67.5C 20.4701,63.5351 20.3035,59.5351 21,55.5C 21.3333,58.1667 21.6667,60.8333 22,63.5C 22.9299,61.4476 24.4299,59.9476 26.5,59C 23.8975,57.4464 22.7308,55.2798 23,52.5C 23.3333,52.8333 23.6667,53.1667 24,53.5C 28.9551,52.475 29.4551,50.6417 25.5,48C 26.7426,45.5451 28.7426,44.3784 31.5,44.5 Z"/></g>
<g><path style="opacity:1" fill="#fefefe" d="M -0.5,59.5 C 4.5,59.5 9.5,59.5 14.5,59.5C 14.5,64.5 14.5,69.5 14.5,74.5C 9.5,74.5 4.5,74.5 -0.5,74.5C -0.5,69.5 -0.5,64.5 -0.5,59.5 Z"/></g>
<g><path style="opacity:1" fill="#dddddd" d="M 299.5,59.5 C 299.5,64.5 299.5,69.5 299.5,74.5C 294.5,74.5 289.5,74.5 284.5,74.5C 284.5,69.5 284.5,64.5 284.5,59.5C 289.5,59.5 294.5,59.5 299.5,59.5 Z"/></g>
<g><path style="opacity:1" fill="#d8d8d9" d="M 18.5,46.5 C 18.5,80.5 18.5,114.5 18.5,148.5C 18.5,183.5 18.5,218.5 18.5,253.5C 17.2921,254.234 15.9587,254.567 14.5,254.5C 14.5,249.5 14.5,244.5 14.5,239.5C 15.5,239.5 16.5,239.5 17.5,239.5C 17.5,224.5 17.5,209.5 17.5,194.5C 16.5,194.5 15.5,194.5 14.5,194.5C 14.5,189.5 14.5,184.5 14.5,179.5C 15.5,179.5 16.5,179.5 17.5,179.5C 17.5,164.5 17.5,149.5 17.5,134.5C 16.5,134.5 15.5,134.5 14.5,134.5C 14.5,129.5 14.5,124.5 14.5,119.5C 15.5,119.5 16.5,119.5 17.5,119.5C 17.5,104.5 17.5,89.5 17.5,74.5C 16.5,74.5 15.5,74.5 14.5,74.5C 14.5,69.5 14.5,64.5 14.5,59.5C 15.5,59.5 16.5,59.5 17.5,59.5C 17.1818,54.9677 17.5151,50.6344 18.5,46.5 Z"/></g>
<g><path style="opacity:1" fill="#2d2d2f" d="M 79.5,67.5 C 68.6536,67.1722 57.9869,67.5056 47.5,68.5C 47.5,68.8333 47.5,69.1667 47.5,69.5C 46.596,68.791 46.2627,67.791 46.5,66.5C 57.6794,66.1721 68.6794,66.5054 79.5,67.5 Z"/></g>
<g><path style="opacity:1" fill="#f4f4f3" d="M 47.5,68.5 C 58.1719,68.3335 68.8385,68.5002 79.5,69C 87.6999,78.0311 96.0332,86.8644 104.5,95.5C 108.476,100.481 112.476,105.481 116.5,110.5C 115.527,111.791 114.527,111.791 113.5,110.5C 112.459,112.991 111.626,112.991 111,110.5C 109.333,110.833 107.667,111.167 106,111.5C 105.193,107.551 104.693,107.551 104.5,111.5C 101.5,111.5 98.5,111.5 95.5,111.5C 95.4042,115.311 94.7376,115.311 93.5,111.5C 93.1667,111.833 92.8333,112.167 92.5,112.5C 93.3256,113.451 93.4922,114.451 93,115.5C 91.6152,114.449 90.6152,113.116 90,111.5C 89.4867,112.527 88.9867,113.527 88.5,114.5C 75.174,99.1748 61.5074,84.1748 47.5,69.5C 47.5,69.1667 47.5,68.8333 47.5,68.5 Z"/></g>
<g><path style="opacity:1" fill="#dddddd" d="M -0.5,74.5 C 4.5,74.5 9.5,74.5 14.5,74.5C 14.5,79.5 14.5,84.5 14.5,89.5C 9.5,89.5 4.5,89.5 -0.5,89.5C -0.5,84.5 -0.5,79.5 -0.5,74.5 Z"/></g>
<g><path style="opacity:1" fill="#484849" d="M 47.5,68.5 C 57.9869,67.5056 68.6536,67.1722 79.5,67.5C 81.0174,67.5106 82.1841,68.1772 83,69.5C 89.6616,77.9927 96.8283,85.9927 104.5,93.5C 104.5,94.1667 104.5,94.8333 104.5,95.5C 96.0332,86.8644 87.6999,78.0311 79.5,69C 68.8385,68.5002 58.1719,68.3335 47.5,68.5 Z"/></g>
<g><path style="opacity:1" fill="#fafafa" d="M 14.5,74.5 C 15.5,74.5 16.5,74.5 17.5,74.5C 17.5,89.5 17.5,104.5 17.5,119.5C 16.5,119.5 15.5,119.5 14.5,119.5C 14.5,114.5 14.5,109.5 14.5,104.5C 9.5,104.5 4.5,104.5 -0.5,104.5C -0.5,99.5 -0.5,94.5 -0.5,89.5C 4.5,89.5 9.5,89.5 14.5,89.5C 14.5,84.5 14.5,79.5 14.5,74.5 Z"/></g>
<g><path style="opacity:1" fill="#dddddd" d="M 299.5,89.5 C 299.5,94.5 299.5,99.5 299.5,104.5C 294.57,104.803 289.737,104.469 285,103.5C 284.495,96.4629 283.661,89.4629 282.5,82.5C 282.833,80.1667 283.167,77.8333 283.5,75.5C 284.192,80.048 284.859,84.548 285.5,89C 290.155,89.4992 294.821,89.6658 299.5,89.5 Z"/></g>
<g><path style="opacity:1" fill="#a9a9a9" d="M 82.5,111.5 C 73.8666,102.698 65.3666,93.6978 57,84.5C 56.3333,83.8333 56.3333,83.1667 57,82.5C 66.1032,91.7613 74.6032,101.428 82.5,111.5 Z"/></g>
<g><path style="opacity:1" fill="#3e3e3f" d="M 104.5,95.5 C 106.371,95.8588 107.871,96.8588 109,98.5C 112.699,103.027 116.532,107.361 120.5,111.5C 124.46,116.795 128.793,121.795 133.5,126.5C 133.953,127.458 134.619,128.292 135.5,129C 135.272,129.399 134.938,129.565 134.5,129.5C 134.167,129.5 133.833,129.5 133.5,129.5C 128.175,122.843 122.509,116.51 116.5,110.5C 112.476,105.481 108.476,100.481 104.5,95.5 Z"/></g>
<g><path style="opacity:1" fill="#dddddd" d="M -0.5,104.5 C 4.5,104.5 9.5,104.5 14.5,104.5C 14.5,109.5 14.5,114.5 14.5,119.5C 9.5,119.5 4.5,119.5 -0.5,119.5C -0.5,114.5 -0.5,109.5 -0.5,104.5 Z"/></g>
<g><path style="opacity:1" fill="#a3a3a2" d="M 82.5,111.5 C 89.2214,116.888 94.8881,123.222 99.5,130.5C 99.1667,130.5 98.8333,130.5 98.5,130.5C 93.1667,124.833 87.8333,119.167 82.5,113.5C 82.5,112.833 82.5,112.167 82.5,111.5 Z"/></g>
<g><path style="opacity:1" fill="#ebebe9" d="M 116.5,110.5 C 122.509,116.51 128.175,122.843 133.5,129.5C 132.833,130.167 132.167,130.833 131.5,131.5C 129.452,134.215 127.118,136.548 124.5,138.5C 123.152,137.814 121.985,136.814 121,135.5C 120.316,136.784 120.483,137.951 121.5,139C 115.509,139.499 109.509,139.666 103.5,139.5C 103.307,135.551 102.807,135.551 102,139.5C 101.086,135.815 100.419,136.148 100,140.5C 98.7025,139.216 97.5358,139.383 96.5,141C 97.5,141.333 98.5,141.667 99.5,142C 96.2958,141.799 93.2958,142.799 90.5,145C 85.4615,150.284 80.7949,155.784 76.5,161.5C 75.5416,161.953 74.7083,162.619 74,163.5C 73.5357,162.906 73.369,162.239 73.5,161.5C 76.8333,157.5 80.1667,153.5 83.5,149.5C 84.5,149.167 85.1667,148.5 85.5,147.5C 90.5103,142.488 95.177,137.155 99.5,131.5C 101.085,130.998 101.585,129.998 101,128.5C 96.5913,123.99 92.4246,119.323 88.5,114.5C 88.9867,113.527 89.4867,112.527 90,111.5C 90.6152,113.116 91.6152,114.449 93,115.5C 93.4922,114.451 93.3256,113.451 92.5,112.5C 92.8333,112.167 93.1667,111.833 93.5,111.5C 94.7376,115.311 95.4042,115.311 95.5,111.5C 98.5,111.5 101.5,111.5 104.5,111.5C 104.693,107.551 105.193,107.551 106,111.5C 107.667,111.167 109.333,110.833 111,110.5C 111.626,112.991 112.459,112.991 113.5,110.5C 114.527,111.791 115.527,111.791 116.5,110.5 Z"/></g>
<g><path style="opacity:1" fill="#fefefe" d="M -0.5,119.5 C 4.5,119.5 9.5,119.5 14.5,119.5C 14.5,124.5 14.5,129.5 14.5,134.5C 9.5,134.5 4.5,134.5 -0.5,134.5C -0.5,129.5 -0.5,124.5 -0.5,119.5 Z"/></g>
<g><path style="opacity:1" fill="#dddddc" d="M 299.5,119.5 C 299.5,124.5 299.5,129.5 299.5,134.5C 294.5,134.5 289.5,134.5 284.5,134.5C 284.5,129.5 284.5,124.5 284.5,119.5C 289.5,119.5 294.5,119.5 299.5,119.5 Z"/></g>
<g><path style="opacity:1" fill="#434247" d="M 255.5,19.5 C 260.284,21.0579 264.618,23.3912 268.5,26.5C 269.833,27.8333 271.167,29.1667 272.5,30.5C 276.374,35.582 279.208,41.2487 281,47.5C 281.823,115.862 281.657,184.195 280.5,252.5C 280.167,252.5 279.833,252.5 279.5,252.5C 279.322,251.305 278.989,250.138 278.5,249C 280.477,215.951 281.144,182.784 280.5,149.5C 280.667,135.496 280.5,121.496 280,107.5C 279.5,121.163 279.333,134.829 279.5,148.5C 276.794,148.575 274.127,148.908 271.5,149.5C 273.476,147.989 275.809,147.156 278.5,147C 276.875,146.147 276.542,145.147 277.5,144C 275.679,141.544 275.012,138.711 275.5,135.5C 274.167,135.5 272.833,135.5 271.5,135.5C 272.833,127.5 274.167,119.5 275.5,111.5C 274.167,111.5 272.833,111.5 271.5,111.5C 271.5,103.5 271.5,95.5 271.5,87.5C 269.5,87.5 267.5,87.5 265.5,87.5C 265.223,84.5525 265.556,81.7191 266.5,79C 262.723,76.792 259.39,74.1254 256.5,71C 258.664,70.0857 260.664,68.919 262.5,67.5C 260.664,66.081 258.664,64.9143 256.5,64C 257.448,63.5172 258.448,63.3505 259.5,63.5C 259.5,60.8333 259.5,58.1667 259.5,55.5C 260.675,55.719 261.675,55.3857 262.5,54.5C 259.794,52.1294 257.461,49.4628 255.5,46.5C 257.287,45.684 258.954,44.684 260.5,43.5C 258.954,42.316 257.287,41.316 255.5,40.5C 256.376,39.7492 257.376,39.2492 258.5,39C 256.5,36.6667 254.5,34.3333 252.5,32C 253.451,28.9433 253.784,25.7766 253.5,22.5C 248.957,23.196 244.291,23.0293 239.5,22C 242.426,21.7822 245.26,21.2822 248,20.5C 248.725,21.0585 249.558,21.3918 250.5,21.5C 252.056,20.4529 253.723,19.7863 255.5,19.5 Z"/></g>
<g><path style="opacity:1" fill="#dddddd" d="M -0.5,134.5 C 4.5,134.5 9.5,134.5 14.5,134.5C 14.5,139.5 14.5,144.5 14.5,149.5C 9.5,149.5 4.5,149.5 -0.5,149.5C -0.5,144.5 -0.5,139.5 -0.5,134.5 Z"/></g>
<g><path style="opacity:1" fill="#69696b" d="M 18.5,46.5 C 19.4927,54.6499 19.8261,62.9832 19.5,71.5C 19.1676,84.1842 19.5009,96.8508 20.5,109.5C 22.1407,112.558 22.9741,115.892 23,119.5C 23.5613,118.978 24.228,118.645 25,118.5C 29.9635,118.892 30.4635,120.225 26.5,122.5C 26.7093,123.086 27.0426,123.586 27.5,124C 30.5597,124.848 33.5597,125.848 36.5,127C 34.8333,127.333 33.1667,127.667 31.5,128C 42.1667,128.667 42.1667,129.333 31.5,130C 33.8907,130.287 36.2241,130.787 38.5,131.5C 39.3857,132.325 39.719,133.325 39.5,134.5C 36.8127,134.336 34.146,134.503 31.5,135C 39.5,135.333 47.5,135.667 55.5,136C 52.8333,136.333 50.1667,136.667 47.5,137C 61.0532,139.569 74.7199,141.069 88.5,141.5C 87.5423,142.962 86.3756,144.295 85,145.5C 84.3083,146.437 84.475,147.103 85.5,147.5C 85.1667,148.5 84.5,149.167 83.5,149.5C 83.5654,149.062 83.3988,148.728 83,148.5C 78.9353,152.395 75.102,156.395 71.5,160.5C 70.0695,160.421 68.7362,160.754 67.5,161.5C 51.3437,157.589 35.3437,153.256 19.5,148.5C 19.1667,148.5 18.8333,148.5 18.5,148.5C 18.5,114.5 18.5,80.5 18.5,46.5 Z"/></g>
<g><path style="opacity:1" fill="#e4e4e2" d="M 124.5,138.5 C 117.236,148.101 109.236,157.101 100.5,165.5C 99.1779,165.33 98.0113,165.663 97,166.5C 96.6258,165.584 96.1258,164.75 95.5,164C 89.2881,162.657 83.1214,162.49 77,163.5C 76.5357,162.906 76.369,162.239 76.5,161.5C 80.7949,155.784 85.4615,150.284 90.5,145C 93.2958,142.799 96.2958,141.799 99.5,142C 98.5,141.667 97.5,141.333 96.5,141C 97.5358,139.383 98.7025,139.216 100,140.5C 100.419,136.148 101.086,135.815 102,139.5C 102.807,135.551 103.307,135.551 103.5,139.5C 109.509,139.666 115.509,139.499 121.5,139C 120.483,137.951 120.316,136.784 121,135.5C 121.985,136.814 123.152,137.814 124.5,138.5 Z"/></g>
<g><path style="opacity:1" fill="#3a3a3b" d="M 98.5,130.5 C 98.8333,130.5 99.1667,130.5 99.5,130.5C 99.5,130.833 99.5,131.167 99.5,131.5C 95.177,137.155 90.5103,142.488 85.5,147.5C 84.475,147.103 84.3083,146.437 85,145.5C 86.3756,144.295 87.5423,142.962 88.5,141.5C 91.8333,137.833 95.1667,134.167 98.5,130.5 Z"/></g>
<g><path style="opacity:1" fill="#fafafa" d="M 14.5,134.5 C 15.5,134.5 16.5,134.5 17.5,134.5C 17.5,149.5 17.5,164.5 17.5,179.5C 16.5,179.5 15.5,179.5 14.5,179.5C 14.5,174.5 14.5,169.5 14.5,164.5C 9.5,164.5 4.5,164.5 -0.5,164.5C -0.5,159.5 -0.5,154.5 -0.5,149.5C 4.5,149.5 9.5,149.5 14.5,149.5C 14.5,144.5 14.5,139.5 14.5,134.5 Z"/></g>
<g><path style="opacity:1" fill="#fafafa" d="M 284.5,29.5 C 284.5,34.5 284.5,39.5 284.5,44.5C 289.5,44.5 294.5,44.5 299.5,44.5C 299.5,49.5 299.5,54.5 299.5,59.5C 294.5,59.5 289.5,59.5 284.5,59.5C 284.5,64.5 284.5,69.5 284.5,74.5C 289.5,74.5 294.5,74.5 299.5,74.5C 299.5,79.5 299.5,84.5 299.5,89.5C 294.821,89.6658 290.155,89.4992 285.5,89C 284.859,84.548 284.192,80.048 283.5,75.5C 283.167,77.8333 282.833,80.1667 282.5,82.5C 283.661,89.4629 284.495,96.4629 285,103.5C 289.737,104.469 294.57,104.803 299.5,104.5C 299.5,109.5 299.5,114.5 299.5,119.5C 294.5,119.5 289.5,119.5 284.5,119.5C 284.5,124.5 284.5,129.5 284.5,134.5C 289.5,134.5 294.5,134.5 299.5,134.5C 299.5,139.5 299.5,144.5 299.5,149.5C 294.5,149.5 289.5,149.5 284.5,149.5C 284.5,154.5 284.5,159.5 284.5,164.5C 289.5,164.5 294.5,164.5 299.5,164.5C 299.5,169.5 299.5,174.5 299.5,179.5C 294.5,179.5 289.5,179.5 284.5,179.5C 284.5,184.5 284.5,189.5 284.5,194.5C 289.5,194.5 294.5,194.5 299.5,194.5C 299.5,199.5 299.5,204.5 299.5,209.5C 294.821,209.666 290.155,209.499 285.5,209C 284.859,204.548 284.192,200.048 283.5,195.5C 283.167,197.833 282.833,200.167 282.5,202.5C 283.167,207.167 283.833,211.833 284.5,216.5C 283.594,221.602 282.927,226.768 282.5,232C 282.525,234.929 283.191,237.429 284.5,239.5C 284.5,244.5 284.5,249.5 284.5,254.5C 282.517,254.843 281.183,254.176 280.5,252.5C 281.657,184.195 281.823,115.862 281,47.5C 279.208,41.2487 276.374,35.582 272.5,30.5C 276.298,29.5166 280.298,29.1832 284.5,29.5 Z"/></g>
<g><path style="opacity:1" fill="#dddddd" d="M 299.5,149.5 C 299.5,154.5 299.5,159.5 299.5,164.5C 294.5,164.5 289.5,164.5 284.5,164.5C 284.5,159.5 284.5,154.5 284.5,149.5C 289.5,149.5 294.5,149.5 299.5,149.5 Z"/></g>
<g><path style="opacity:1" fill="#35343a" d="M 280.5,149.5 C 279.521,152.625 279.187,155.958 279.5,159.5C 278.448,159.351 277.448,159.517 276.5,160C 275.667,162.167 274.167,163.667 272,164.5C 271.517,165.448 271.351,166.448 271.5,167.5C 268.833,167.5 266.167,167.5 263.5,167.5C 263.29,164.03 262.123,164.03 260,167.5C 259.503,170.146 259.336,172.813 259.5,175.5C 258.167,175.5 256.833,175.5 255.5,175.5C 255.557,171.867 254.557,171.7 252.5,175C 250.866,175.494 249.199,175.66 247.5,175.5C 247.5,177.833 247.5,180.167 247.5,182.5C 244.833,182.5 242.167,182.5 239.5,182.5C 240.323,188.675 237.656,191.675 231.5,191.5C 231.649,192.552 231.483,193.552 231,194.5C 227.386,198.12 223.219,201.12 218.5,203.5C 220.586,204.489 222.253,205.822 223.5,207.5C 207.5,207.5 191.5,207.5 175.5,207.5C 175.5,206.5 175.5,205.5 175.5,204.5C 174.325,204.719 173.325,204.386 172.5,203.5C 178.012,203.018 183.345,201.851 188.5,200C 186.744,199.798 185.078,199.298 183.5,198.5C 186.086,197.52 188.753,197.187 191.5,197.5C 191.5,196.167 191.5,194.833 191.5,193.5C 194.247,193.813 196.914,193.48 199.5,192.5C 202.204,190.761 204.704,188.761 207,186.5C 207.333,187.167 207.667,187.833 208,188.5C 210.167,187.667 211.667,186.167 212.5,184C 210.487,183.125 210.487,181.791 212.5,180C 214.744,177.651 215.911,178.151 216,181.5C 220.955,180.475 221.455,178.642 217.5,176C 219.473,175.505 221.473,175.338 223.5,175.5C 223.5,174.167 223.5,172.833 223.5,171.5C 226.167,171.5 228.833,171.5 231.5,171.5C 231.227,169.549 231.893,168.049 233.5,167C 232.833,166.333 232.167,165.667 231.5,165C 234.525,164.867 237.192,163.867 239.5,162C 236.189,162.215 232.856,162.215 229.5,162C 232.104,161.61 234.438,160.776 236.5,159.5C 248.579,157.161 260.246,153.828 271.5,149.5C 274.127,148.908 276.794,148.575 279.5,148.5C 279.333,134.829 279.5,121.163 280,107.5C 280.5,121.496 280.667,135.496 280.5,149.5 Z"/></g>
<g><path style="opacity:1" fill="#9b9b9b" d="M 133.5,129.5 C 133.833,129.5 134.167,129.5 134.5,129.5C 135.303,130.423 135.47,131.423 135,132.5C 126.562,141.096 118.729,150.096 111.5,159.5C 108.833,161.5 106.5,163.833 104.5,166.5C 104.167,166.5 103.833,166.5 103.5,166.5C 113.268,154.891 123.268,143.391 133.5,132C 132.906,131.536 132.239,131.369 131.5,131.5C 132.167,130.833 132.833,130.167 133.5,129.5 Z"/></g>
<g><path style="opacity:1" fill="#4b4a4f" d="M 19.5,148.5 C 35.3437,153.256 51.3437,157.589 67.5,161.5C 68.7362,160.754 70.0695,160.421 71.5,160.5C 70.0442,163.535 67.8775,164.869 65,164.5C 64.6667,166.167 64.3333,167.833 64,169.5C 58.3875,175.735 52.5542,181.735 46.5,187.5C 45.7189,188.729 45.2189,190.062 45,191.5C 44.5172,190.552 44.3505,189.552 44.5,188.5C 43.1667,188.5 41.8333,188.5 40.5,188.5C 40.6495,189.552 40.4828,190.552 40,191.5C 37.544,189.679 34.7107,189.012 31.5,189.5C 31.5,188.5 31.5,187.5 31.5,186.5C 28.5,186.5 25.5,186.5 22.5,186.5C 22.8146,184.774 22.9813,183.107 23,181.5C 21.4039,180.952 20.2373,181.618 19.5,183.5C 19.5,171.833 19.5,160.167 19.5,148.5 Z"/></g>
<g><path style="opacity:1" fill="#3b3a40" d="M 235.5,159.5 C 235.833,159.5 236.167,159.5 236.5,159.5C 234.438,160.776 232.104,161.61 229.5,162C 232.856,162.215 236.189,162.215 239.5,162C 237.192,163.867 234.525,164.867 231.5,165C 232.167,165.667 232.833,166.333 233.5,167C 231.893,168.049 231.227,169.549 231.5,171.5C 228.833,171.5 226.167,171.5 223.5,171.5C 223.5,172.833 223.5,174.167 223.5,175.5C 221.473,175.338 219.473,175.505 217.5,176C 221.455,178.642 220.955,180.475 216,181.5C 215.911,178.151 214.744,177.651 212.5,180C 210.487,181.791 210.487,183.125 212.5,184C 211.667,186.167 210.167,187.667 208,188.5C 207.667,187.833 207.333,187.167 207,186.5C 204.704,188.761 202.204,190.761 199.5,192.5C 196.914,193.48 194.247,193.813 191.5,193.5C 191.5,194.833 191.5,196.167 191.5,197.5C 188.753,197.187 186.086,197.52 183.5,198.5C 185.078,199.298 186.744,199.798 188.5,200C 183.345,201.851 178.012,203.018 172.5,203.5C 173.325,204.386 174.325,204.719 175.5,204.5C 175.5,205.5 175.5,206.5 175.5,207.5C 167.16,207.334 158.827,207.5 150.5,208C 184.336,208.168 218.002,208.668 251.5,209.5C 251.167,209.5 250.833,209.5 250.5,209.5C 216.833,209.5 183.167,209.5 149.5,209.5C 149.5,215.833 149.5,222.167 149.5,228.5C 149.5,229.167 149.833,229.5 150.5,229.5C 150.5,229.833 150.5,230.167 150.5,230.5C 148.302,230.409 147.969,231.075 149.5,232.5C 146.661,232.385 144.661,231.052 143.5,228.5C 145.23,226.164 146.73,226.164 148,228.5C 148.667,222.5 148.667,216.5 148,210.5C 147.667,213.5 147.333,216.5 147,219.5C 146.667,218.833 146.333,218.167 146,217.5C 145.667,218.833 145.333,220.167 145,221.5C 144.667,219.5 144.333,217.5 144,215.5C 143.517,216.448 143.351,217.448 143.5,218.5C 138.167,219.167 132.833,219.833 127.5,220.5C 127.5,221.5 127.5,222.5 127.5,223.5C 94.2723,229.714 60.9389,230.38 27.5,225.5C 25.6803,225.351 24.1803,224.684 23,223.5C 22.6667,225.167 22.3333,226.833 22,228.5C 19.9612,217.933 19.1279,207.266 19.5,196.5C 20.1174,196.611 20.6174,196.944 21,197.5C 21.6667,210.833 22.3333,210.833 23,197.5C 23.4955,199.473 23.6621,201.473 23.5,203.5C 28.8746,203.172 34.2079,203.505 39.5,204.5C 36.8333,205.167 34.1667,205.833 31.5,206.5C 38.2217,207.173 44.8883,208.173 51.5,209.5C 54.1667,208.833 56.8333,208.167 59.5,207.5C 68.9166,210.158 78.2499,209.825 87.5,206.5C 98.1667,205.833 108.833,205.167 119.5,204.5C 125.53,204.269 130.864,202.269 135.5,198.5C 139.532,197.775 143.532,196.942 147.5,196C 147.957,195.586 148.291,195.086 148.5,194.5C 147.5,193.667 146.5,192.833 145.5,192C 149.108,190.339 152.775,190.005 156.5,191C 158.443,187.668 159.61,187.834 160,191.5C 161.639,189.194 163.639,187.194 166,185.5C 166.807,181.551 167.307,181.551 167.5,185.5C 170.247,185.813 172.914,185.48 175.5,184.5C 178.908,177.955 184.241,174.955 191.5,175.5C 191.351,174.448 191.517,173.448 192,172.5C 198.153,168.314 197.32,166.314 189.5,166.5C 196.421,166.305 203.087,165.305 209.5,163.5C 218.199,162.384 226.866,161.05 235.5,159.5 Z"/></g>
<g><path style="opacity:1" fill="#dddddd" d="M -0.5,164.5 C 4.5,164.5 9.5,164.5 14.5,164.5C 14.5,169.5 14.5,174.5 14.5,179.5C 9.5,179.5 4.5,179.5 -0.5,179.5C -0.5,174.5 -0.5,169.5 -0.5,164.5 Z"/></g>
<g><path style="opacity:1" fill="#47464c" d="M 127.5,167.5 C 141.069,168.822 154.735,168.822 168.5,167.5C 169.833,167.5 171.167,167.5 172.5,167.5C 171.737,168.268 170.737,168.768 169.5,169C 161.167,169.333 152.833,169.667 144.5,170C 149.533,170.171 154.533,170.671 159.5,171.5C 156.215,172.324 152.882,172.824 149.5,173C 153.619,173.143 157.619,173.81 161.5,175C 157.775,175.76 154.108,175.593 150.5,174.5C 148.571,175.38 146.737,176.38 145,177.5C 144.055,177.095 143.388,176.428 143,175.5C 139.491,180.205 134.991,183.539 129.5,185.5C 127.95,184.268 126.283,183.768 124.5,184C 123.5,186.333 121.833,188 119.5,189C 112.589,189.218 105.756,190.051 99,191.5C 97.5,191.333 96,191.167 94.5,191C 95.8882,190.111 95.7215,189.611 94,189.5C 93.3333,190.167 92.6667,190.833 92,191.5C 90.3943,189.016 88.8943,189.016 87.5,191.5C 87.2635,190.753 86.9302,189.92 86.5,189C 88.9005,188.814 91.2338,188.314 93.5,187.5C 92.6086,186.41 91.6086,186.41 90.5,187.5C 89.2888,186.726 89.2888,185.893 90.5,185C 89.9056,184.536 89.2389,184.369 88.5,184.5C 93.1667,179.167 97.8333,173.833 102.5,168.5C 103.338,168.158 103.672,167.492 103.5,166.5C 103.833,166.5 104.167,166.5 104.5,166.5C 105.93,166.579 107.264,166.246 108.5,165.5C 114.769,166.627 121.102,167.294 127.5,167.5 Z"/></g>
<g><path style="opacity:1" fill="#403f45" d="M 83.5,149.5 C 80.1667,153.5 76.8333,157.5 73.5,161.5C 64.1209,170.545 55.4543,180.211 47.5,190.5C 47.5,190.833 47.5,191.167 47.5,191.5C 46.596,192.209 46.2627,193.209 46.5,194.5C 57.6794,194.828 68.6794,194.495 79.5,193.5C 82.8605,190.806 85.8605,187.806 88.5,184.5C 89.2389,184.369 89.9056,184.536 90.5,185C 89.2888,185.893 89.2888,186.726 90.5,187.5C 91.6086,186.41 92.6086,186.41 93.5,187.5C 91.2338,188.314 88.9005,188.814 86.5,189C 86.9302,189.92 87.2635,190.753 87.5,191.5C 88.8943,189.016 90.3943,189.016 92,191.5C 92.6667,190.833 93.3333,190.167 94,189.5C 95.7215,189.611 95.8882,190.111 94.5,191C 96,191.167 97.5,191.333 99,191.5C 105.756,190.051 112.589,189.218 119.5,189C 121.833,188 123.5,186.333 124.5,184C 126.283,183.768 127.95,184.268 129.5,185.5C 134.991,183.539 139.491,180.205 143,175.5C 143.388,176.428 144.055,177.095 145,177.5C 146.737,176.38 148.571,175.38 150.5,174.5C 154.108,175.593 157.775,175.76 161.5,175C 157.619,173.81 153.619,173.143 149.5,173C 152.882,172.824 156.215,172.324 159.5,171.5C 154.533,170.671 149.533,170.171 144.5,170C 152.833,169.667 161.167,169.333 169.5,169C 170.737,168.768 171.737,168.268 172.5,167.5C 178.189,167.468 183.855,167.134 189.5,166.5C 197.32,166.314 198.153,168.314 192,172.5C 191.517,173.448 191.351,174.448 191.5,175.5C 184.241,174.955 178.908,177.955 175.5,184.5C 172.914,185.48 170.247,185.813 167.5,185.5C 167.307,181.551 166.807,181.551 166,185.5C 163.639,187.194 161.639,189.194 160,191.5C 159.61,187.834 158.443,187.668 156.5,191C 152.775,190.005 149.108,190.339 145.5,192C 146.5,192.833 147.5,193.667 148.5,194.5C 148.291,195.086 147.957,195.586 147.5,196C 143.532,196.942 139.532,197.775 135.5,198.5C 130.864,202.269 125.53,204.269 119.5,204.5C 108.833,205.167 98.1667,205.833 87.5,206.5C 78.2499,209.825 68.9166,210.158 59.5,207.5C 56.8333,208.167 54.1667,208.833 51.5,209.5C 44.8883,208.173 38.2217,207.173 31.5,206.5C 34.1667,205.833 36.8333,205.167 39.5,204.5C 34.2079,203.505 28.8746,203.172 23.5,203.5C 23.6621,201.473 23.4955,199.473 23,197.5C 22.3333,210.833 21.6667,210.833 21,197.5C 20.6174,196.944 20.1174,196.611 19.5,196.5C 19.5,192.167 19.5,187.833 19.5,183.5C 20.2373,181.618 21.4039,180.952 23,181.5C 22.9813,183.107 22.8146,184.774 22.5,186.5C 25.5,186.5 28.5,186.5 31.5,186.5C 31.5,187.5 31.5,188.5 31.5,189.5C 34.7107,189.012 37.544,189.679 40,191.5C 40.4828,190.552 40.6495,189.552 40.5,188.5C 41.8333,188.5 43.1667,188.5 44.5,188.5C 44.3505,189.552 44.5172,190.552 45,191.5C 45.2189,190.062 45.7189,188.729 46.5,187.5C 52.5542,181.735 58.3875,175.735 64,169.5C 64.3333,167.833 64.6667,166.167 65,164.5C 67.8775,164.869 70.0442,163.535 71.5,160.5C 75.102,156.395 78.9353,152.395 83,148.5C 83.3988,148.728 83.5654,149.062 83.5,149.5 Z"/></g>
<g><path style="opacity:1" fill="#302f34" d="M 279.5,159.5 C 280.117,174.282 279.284,188.948 277,203.5C 275.984,204.634 275.317,204.301 275,202.5C 273.209,204.513 271.875,204.513 271,202.5C 268.833,203.333 267.333,204.833 266.5,207C 264.19,207.497 261.857,207.663 259.5,207.5C 259.5,210.167 259.5,212.833 259.5,215.5C 257.801,215.66 256.134,215.494 254.5,215C 255.668,213.594 255.335,212.428 253.5,211.5C 254.025,210.808 254.692,210.308 255.5,210C 254.328,209.581 253.328,208.915 252.5,208C 242.839,207.5 233.172,207.334 223.5,207.5C 222.253,205.822 220.586,204.489 218.5,203.5C 223.219,201.12 227.386,198.12 231,194.5C 231.483,193.552 231.649,192.552 231.5,191.5C 237.656,191.675 240.323,188.675 239.5,182.5C 242.167,182.5 244.833,182.5 247.5,182.5C 247.5,180.167 247.5,177.833 247.5,175.5C 249.199,175.66 250.866,175.494 252.5,175C 254.557,171.7 255.557,171.867 255.5,175.5C 256.833,175.5 258.167,175.5 259.5,175.5C 259.336,172.813 259.503,170.146 260,167.5C 262.123,164.03 263.29,164.03 263.5,167.5C 266.167,167.5 268.833,167.5 271.5,167.5C 271.351,166.448 271.517,165.448 272,164.5C 274.167,163.667 275.667,162.167 276.5,160C 277.448,159.517 278.448,159.351 279.5,159.5 Z"/></g>
<g><path style="opacity:1" fill="#d6d7d2" d="M 73.5,161.5 C 73.369,162.239 73.5357,162.906 74,163.5C 74.7083,162.619 75.5416,161.953 76.5,161.5C 76.369,162.239 76.5357,162.906 77,163.5C 83.1214,162.49 89.2881,162.657 95.5,164C 96.1258,164.75 96.6258,165.584 97,166.5C 98.0113,165.663 99.1779,165.33 100.5,165.5C 93.8809,173.843 86.8809,182.01 79.5,190C 68.8385,190.5 58.1719,190.667 47.5,190.5C 55.4543,180.211 64.1209,170.545 73.5,161.5 Z"/></g>
<g><path style="opacity:1" fill="#545454" d="M 131.5,131.5 C 132.239,131.369 132.906,131.536 133.5,132C 123.268,143.391 113.268,154.891 103.5,166.5C 103.672,167.492 103.338,168.158 102.5,168.5C 102.565,168.062 102.399,167.728 102,167.5C 94.5,175.667 87,183.833 79.5,192C 68.8385,192.5 58.1719,192.667 47.5,192.5C 47.5,192.167 47.5,191.833 47.5,191.5C 47.5,191.167 47.5,190.833 47.5,190.5C 58.1719,190.667 68.8385,190.5 79.5,190C 86.8809,182.01 93.8809,173.843 100.5,165.5C 109.236,157.101 117.236,148.101 124.5,138.5C 127.118,136.548 129.452,134.215 131.5,131.5 Z"/></g>
<g><path style="opacity:1" fill="#fefefe" d="M -0.5,179.5 C 4.5,179.5 9.5,179.5 14.5,179.5C 14.5,184.5 14.5,189.5 14.5,194.5C 9.5,194.5 4.5,194.5 -0.5,194.5C -0.5,189.5 -0.5,184.5 -0.5,179.5 Z"/></g>
<g><path style="opacity:1" fill="#dddddd" d="M 299.5,179.5 C 299.5,184.5 299.5,189.5 299.5,194.5C 294.5,194.5 289.5,194.5 284.5,194.5C 284.5,189.5 284.5,184.5 284.5,179.5C 289.5,179.5 294.5,179.5 299.5,179.5 Z"/></g>
<g><path style="opacity:1" fill="#8e8e8e" d="M 102.5,168.5 C 97.8333,173.833 93.1667,179.167 88.5,184.5C 85.8605,187.806 82.8605,190.806 79.5,193.5C 68.6536,193.828 57.9869,193.494 47.5,192.5C 58.1719,192.667 68.8385,192.5 79.5,192C 87,183.833 94.5,175.667 102,167.5C 102.399,167.728 102.565,168.062 102.5,168.5 Z"/></g>
<g><path style="opacity:1" fill="#757575" d="M 47.5,191.5 C 47.5,191.833 47.5,192.167 47.5,192.5C 57.9869,193.494 68.6536,193.828 79.5,193.5C 68.6794,194.495 57.6794,194.828 46.5,194.5C 46.2627,193.209 46.596,192.209 47.5,191.5 Z"/></g>
<g><path style="opacity:1" fill="#dddddd" d="M -0.5,194.5 C 4.5,194.5 9.5,194.5 14.5,194.5C 14.5,199.5 14.5,204.5 14.5,209.5C 9.5,209.5 4.5,209.5 -0.5,209.5C -0.5,204.5 -0.5,199.5 -0.5,194.5 Z"/></g>
<g><path style="opacity:1" fill="#fafafa" d="M 14.5,194.5 C 15.5,194.5 16.5,194.5 17.5,194.5C 17.5,209.5 17.5,224.5 17.5,239.5C 16.5,239.5 15.5,239.5 14.5,239.5C 14.5,234.5 14.5,229.5 14.5,224.5C 9.5,224.5 4.5,224.5 -0.5,224.5C -0.5,219.5 -0.5,214.5 -0.5,209.5C 4.5,209.5 9.5,209.5 14.5,209.5C 14.5,204.5 14.5,199.5 14.5,194.5 Z"/></g>
<g><path style="opacity:1" fill="#dddddd" d="M 299.5,209.5 C 299.5,214.5 299.5,219.5 299.5,224.5C 294.5,224.5 289.5,224.5 284.5,224.5C 284.5,229.5 284.5,234.5 284.5,239.5C 283.191,237.429 282.525,234.929 282.5,232C 282.927,226.768 283.594,221.602 284.5,216.5C 283.833,211.833 283.167,207.167 282.5,202.5C 282.833,200.167 283.167,197.833 283.5,195.5C 284.192,200.048 284.859,204.548 285.5,209C 290.155,209.499 294.821,209.666 299.5,209.5 Z"/></g>
<g><path style="opacity:1" fill="#c4c4bf" d="M 250.5,209.5 C 250.5,215.833 250.5,222.167 250.5,228.5C 216.833,228.5 183.167,228.5 149.5,228.5C 149.5,222.167 149.5,215.833 149.5,209.5C 183.167,209.5 216.833,209.5 250.5,209.5 Z"/></g>
<g><path style="opacity:1" fill="#353439" d="M 18.5,148.5 C 18.8333,148.5 19.1667,148.5 19.5,148.5C 19.5,160.167 19.5,171.833 19.5,183.5C 19.5,187.833 19.5,192.167 19.5,196.5C 19.1279,207.266 19.9612,217.933 22,228.5C 22.3333,226.833 22.6667,225.167 23,223.5C 24.1803,224.684 25.6803,225.351 27.5,225.5C 60.9389,230.38 94.2723,229.714 127.5,223.5C 127.5,222.5 127.5,221.5 127.5,220.5C 132.833,219.833 138.167,219.167 143.5,218.5C 143.351,217.448 143.517,216.448 144,215.5C 144.333,217.5 144.667,219.5 145,221.5C 145.333,220.167 145.667,218.833 146,217.5C 146.333,218.167 146.667,218.833 147,219.5C 147.333,216.5 147.667,213.5 148,210.5C 148.667,216.5 148.667,222.5 148,228.5C 146.73,226.164 145.23,226.164 143.5,228.5C 144.661,231.052 146.661,232.385 149.5,232.5C 150.167,232.5 150.833,232.5 151.5,232.5C 150.737,233.268 149.737,233.768 148.5,234C 149.5,234.333 150.5,234.667 151.5,235C 149.186,236.398 146.853,236.565 144.5,235.5C 144.167,235.833 143.833,236.167 143.5,236.5C 147.361,237.598 147.361,238.431 143.5,239C 138.177,239.499 132.844,239.666 127.5,239.5C 127.5,240.833 127.5,242.167 127.5,243.5C 119.394,244.525 111.394,246.192 103.5,248.5C 92.7913,249.281 82.1246,250.281 71.5,251.5C 71.5,252.833 71.5,254.167 71.5,255.5C 68.8333,255.5 66.1667,255.5 63.5,255.5C 63.5,253.5 63.5,251.5 63.5,249.5C 55.5,249.5 47.5,249.5 39.5,249.5C 39.5,248.167 39.5,246.833 39.5,245.5C 36.8333,245.5 34.1667,245.5 31.5,245.5C 31.5,243.5 31.5,241.5 31.5,239.5C 30.1667,239.5 28.8333,239.5 27.5,239.5C 27.5,240.833 27.5,242.167 27.5,243.5C 26.1667,243.5 24.8333,243.5 23.5,243.5C 22.5063,234.186 21.5063,234.186 20.5,243.5C 20.7107,245.686 21.0441,247.853 21.5,250C 20.6216,251.8 19.955,253.633 19.5,255.5C 18.6618,255.158 18.3284,254.492 18.5,253.5C 18.5,218.5 18.5,183.5 18.5,148.5 Z"/></g>
<g><path style="opacity:1" fill="#28272c" d="M 280.5,149.5 C 281.144,182.784 280.477,215.951 278.5,249C 278.989,250.138 279.322,251.305 279.5,252.5C 278.358,258.948 275.691,264.614 271.5,269.5C 270.5,269.833 269.833,270.5 269.5,271.5C 265.092,274.702 260.425,277.368 255.5,279.5C 254.833,279.5 254.167,279.5 253.5,279.5C 252.448,279.649 251.448,279.483 250.5,279C 250.833,278.667 251.167,278.333 251.5,278C 248.526,275.982 247.526,276.649 248.5,280C 182.501,280.5 116.501,280.667 50.5,280.5C 81.3288,279.502 112.329,279.169 143.5,279.5C 143.5,277.5 143.5,275.5 143.5,273.5C 146.167,273.5 148.833,273.5 151.5,273.5C 151.5,272.167 151.5,270.833 151.5,269.5C 156.869,268.993 162.202,268.159 167.5,267C 169.667,263.803 172.167,260.97 175,258.5C 175.494,260.134 175.66,261.801 175.5,263.5C 178.167,263.5 180.833,263.5 183.5,263.5C 183.5,261.5 183.5,259.5 183.5,257.5C 188.833,256.833 194.167,256.167 199.5,255.5C 199.5,252.833 199.5,250.167 199.5,247.5C 203.182,247.665 206.848,247.499 210.5,247C 211.333,244.833 212.833,243.333 215,242.5C 215.333,243.167 215.667,243.833 216,244.5C 221.501,241.201 221.334,239.368 215.5,239C 220.864,238.829 226.198,238.329 231.5,237.5C 228.893,236.682 226.226,236.182 223.5,236C 233.5,235.667 243.5,235.333 253.5,235C 232.699,233.906 212.032,233.072 191.5,232.5C 211.652,232.987 231.652,232.487 251.5,231C 217.835,230.5 184.168,230.333 150.5,230.5C 150.5,230.167 150.5,229.833 150.5,229.5C 184.167,229.5 217.833,229.5 251.5,229.5C 251.5,222.833 251.5,216.167 251.5,209.5C 218.002,208.668 184.336,208.168 150.5,208C 158.827,207.5 167.16,207.334 175.5,207.5C 191.5,207.5 207.5,207.5 223.5,207.5C 233.172,207.334 242.839,207.5 252.5,208C 253.328,208.915 254.328,209.581 255.5,210C 254.692,210.308 254.025,210.808 253.5,211.5C 255.335,212.428 255.668,213.594 254.5,215C 256.134,215.494 257.801,215.66 259.5,215.5C 259.5,212.833 259.5,210.167 259.5,207.5C 261.857,207.663 264.19,207.497 266.5,207C 267.333,204.833 268.833,203.333 271,202.5C 271.875,204.513 273.209,204.513 275,202.5C 275.317,204.301 275.984,204.634 277,203.5C 279.284,188.948 280.117,174.282 279.5,159.5C 279.187,155.958 279.521,152.625 280.5,149.5 Z"/></g>
<g><path style="opacity:1" fill="#fefefe" d="M 299.5,224.5 C 299.5,229.5 299.5,234.5 299.5,239.5C 294.5,239.5 289.5,239.5 284.5,239.5C 284.5,234.5 284.5,229.5 284.5,224.5C 289.5,224.5 294.5,224.5 299.5,224.5 Z"/></g>
<g><path style="opacity:1" fill="#dddddd" d="M -0.5,224.5 C 4.5,224.5 9.5,224.5 14.5,224.5C 14.5,229.5 14.5,234.5 14.5,239.5C 9.5,239.5 4.5,239.5 -0.5,239.5C -0.5,234.5 -0.5,229.5 -0.5,224.5 Z"/></g>
<g><path style="opacity:1" fill="#909090" d="M 250.5,209.5 C 250.833,209.5 251.167,209.5 251.5,209.5C 251.5,216.167 251.5,222.833 251.5,229.5C 217.833,229.5 184.167,229.5 150.5,229.5C 149.833,229.5 149.5,229.167 149.5,228.5C 183.167,228.5 216.833,228.5 250.5,228.5C 250.5,222.167 250.5,215.833 250.5,209.5 Z"/></g>
<g><path style="opacity:1" fill="#828285" d="M 150.5,230.5 C 184.168,230.333 217.835,230.5 251.5,231C 231.652,232.487 211.652,232.987 191.5,232.5C 178.167,232.5 164.833,232.5 151.5,232.5C 150.833,232.5 150.167,232.5 149.5,232.5C 147.969,231.075 148.302,230.409 150.5,230.5 Z"/></g>
<g><path style="opacity:1" fill="#2f2e33" d="M 151.5,232.5 C 164.833,232.5 178.167,232.5 191.5,232.5C 212.032,233.072 232.699,233.906 253.5,235C 243.5,235.333 233.5,235.667 223.5,236C 226.226,236.182 228.893,236.682 231.5,237.5C 226.198,238.329 220.864,238.829 215.5,239C 221.334,239.368 221.501,241.201 216,244.5C 215.667,243.833 215.333,243.167 215,242.5C 212.833,243.333 211.333,244.833 210.5,247C 206.848,247.499 203.182,247.665 199.5,247.5C 199.5,250.167 199.5,252.833 199.5,255.5C 194.167,256.167 188.833,256.833 183.5,257.5C 183.5,259.5 183.5,261.5 183.5,263.5C 180.833,263.5 178.167,263.5 175.5,263.5C 175.66,261.801 175.494,260.134 175,258.5C 172.167,260.97 169.667,263.803 167.5,267C 162.202,268.159 156.869,268.993 151.5,269.5C 151.5,270.833 151.5,272.167 151.5,273.5C 148.833,273.5 146.167,273.5 143.5,273.5C 143.5,275.5 143.5,277.5 143.5,279.5C 112.329,279.169 81.3288,279.502 50.5,280.5C 48.5648,279.85 46.5648,279.517 44.5,279.5C 39.772,278.302 35.4387,276.302 31.5,273.5C 29.5,271.5 27.5,269.5 25.5,267.5C 22.9751,263.783 20.9751,259.783 19.5,255.5C 19.955,253.633 20.6216,251.8 21.5,250C 21.0441,247.853 20.7107,245.686 20.5,243.5C 21.5063,234.186 22.5063,234.186 23.5,243.5C 24.8333,243.5 26.1667,243.5 27.5,243.5C 27.5,242.167 27.5,240.833 27.5,239.5C 28.8333,239.5 30.1667,239.5 31.5,239.5C 31.5,241.5 31.5,243.5 31.5,245.5C 34.1667,245.5 36.8333,245.5 39.5,245.5C 39.5,246.833 39.5,248.167 39.5,249.5C 47.5,249.5 55.5,249.5 63.5,249.5C 63.5,251.5 63.5,253.5 63.5,255.5C 66.1667,255.5 68.8333,255.5 71.5,255.5C 71.5,254.167 71.5,252.833 71.5,251.5C 82.1246,250.281 92.7913,249.281 103.5,248.5C 111.394,246.192 119.394,244.525 127.5,243.5C 127.5,242.167 127.5,240.833 127.5,239.5C 132.844,239.666 138.177,239.499 143.5,239C 147.361,238.431 147.361,237.598 143.5,236.5C 143.833,236.167 144.167,235.833 144.5,235.5C 146.853,236.565 149.186,236.398 151.5,235C 150.5,234.667 149.5,234.333 148.5,234C 149.737,233.768 150.737,233.268 151.5,232.5 Z"/></g>
<g><path style="opacity:1" fill="#fefefe" d="M -0.5,239.5 C 4.5,239.5 9.5,239.5 14.5,239.5C 14.5,244.5 14.5,249.5 14.5,254.5C 9.5,254.5 4.5,254.5 -0.5,254.5C -0.5,249.5 -0.5,244.5 -0.5,239.5 Z"/></g>
<g><path style="opacity:1" fill="#dddddd" d="M 284.5,239.5 C 289.5,239.5 294.5,239.5 299.5,239.5C 299.5,244.5 299.5,249.5 299.5,254.5C 294.5,254.5 289.5,254.5 284.5,254.5C 284.5,249.5 284.5,244.5 284.5,239.5 Z"/></g>
<g><path style="opacity:1" fill="#dddddd" d="M -0.5,254.5 C 4.5,254.5 9.5,254.5 14.5,254.5C 14.5,259.5 14.5,264.5 14.5,269.5C 9.5,269.5 4.5,269.5 -0.5,269.5C -0.5,264.5 -0.5,259.5 -0.5,254.5 Z"/></g>
<g><path style="opacity:1" fill="#f9f9f9" d="M 18.5,253.5 C 18.3284,254.492 18.6618,255.158 19.5,255.5C 20.9751,259.783 22.9751,263.783 25.5,267.5C 22.3157,269.414 18.649,270.08 14.5,269.5C 14.5,264.5 14.5,259.5 14.5,254.5C 15.9587,254.567 17.2921,254.234 18.5,253.5 Z"/></g>
<g><path style="opacity:1" fill="#dcdcdd" d="M 279.5,252.5 C 279.833,252.5 280.167,252.5 280.5,252.5C 281.183,254.176 282.517,254.843 284.5,254.5C 284.5,259.5 284.5,264.5 284.5,269.5C 280.167,269.5 275.833,269.5 271.5,269.5C 275.691,264.614 278.358,258.948 279.5,252.5 Z"/></g>
<g><path style="opacity:1" fill="#fefffe" d="M 284.5,254.5 C 289.5,254.5 294.5,254.5 299.5,254.5C 299.5,259.5 299.5,264.5 299.5,269.5C 294.5,269.5 289.5,269.5 284.5,269.5C 284.5,264.5 284.5,259.5 284.5,254.5 Z"/></g>
<g><path style="opacity:1" fill="#fefefe" d="M -0.5,269.5 C 4.5,269.5 9.5,269.5 14.5,269.5C 14.5,274.5 14.5,279.5 14.5,284.5C 9.5,284.5 4.5,284.5 -0.5,284.5C -0.5,279.5 -0.5,274.5 -0.5,269.5 Z"/></g>
<g><path style="opacity:1" fill="#dcdcdc" d="M 25.5,267.5 C 27.5,269.5 29.5,271.5 31.5,273.5C 29.5864,276.684 28.9197,280.351 29.5,284.5C 24.5,284.5 19.5,284.5 14.5,284.5C 14.5,279.5 14.5,274.5 14.5,269.5C 18.649,270.08 22.3157,269.414 25.5,267.5 Z"/></g>
<g><path style="opacity:1" fill="#fefefe" d="M 271.5,269.5 C 275.833,269.5 280.167,269.5 284.5,269.5C 284.5,274.5 284.5,279.5 284.5,284.5C 279.5,284.5 274.5,284.5 269.5,284.5C 269.5,280.167 269.5,275.833 269.5,271.5C 269.833,270.5 270.5,269.833 271.5,269.5 Z"/></g>
<g><path style="opacity:1" fill="#dddddd" d="M 284.5,269.5 C 289.5,269.5 294.5,269.5 299.5,269.5C 299.5,274.5 299.5,279.5 299.5,284.5C 294.5,284.5 289.5,284.5 284.5,284.5C 284.5,279.5 284.5,274.5 284.5,269.5 Z"/></g>
<g><path style="opacity:1" fill="#dcdcdc" d="M 269.5,271.5 C 269.5,275.833 269.5,280.167 269.5,284.5C 264.5,284.5 259.5,284.5 254.5,284.5C 254.5,283.167 254.5,281.833 254.5,280.5C 257.517,280.444 257.85,280.11 255.5,279.5C 260.425,277.368 265.092,274.702 269.5,271.5 Z"/></g>
<g><path style="opacity:1" fill="#3b3b3d" d="M 253.5,279.5 C 252.391,280.29 251.058,280.79 249.5,281C 182.167,281.667 114.833,281.667 47.5,281C 46.2625,280.768 45.2625,280.268 44.5,279.5C 46.5648,279.517 48.5648,279.85 50.5,280.5C 116.501,280.667 182.501,280.5 248.5,280C 247.526,276.649 248.526,275.982 251.5,278C 251.167,278.333 250.833,278.667 250.5,279C 251.448,279.483 252.448,279.649 253.5,279.5 Z"/></g>
<g><path style="opacity:1" fill="#dddddd" d="M -0.5,284.5 C 4.5,284.5 9.5,284.5 14.5,284.5C 14.5,289.5 14.5,294.5 14.5,299.5C 9.5,299.5 4.5,299.5 -0.5,299.5C -0.5,294.5 -0.5,289.5 -0.5,284.5 Z"/></g>
<g><path style="opacity:1" fill="#fefefe" d="M 14.5,284.5 C 19.5,284.5 24.5,284.5 29.5,284.5C 29.5,289.5 29.5,294.5 29.5,299.5C 24.5,299.5 19.5,299.5 14.5,299.5C 14.5,294.5 14.5,289.5 14.5,284.5 Z"/></g>
<g><path style="opacity:1" fill="#dddddd" d="M 29.5,284.5 C 34.5,284.5 39.5,284.5 44.5,284.5C 44.5,289.5 44.5,294.5 44.5,299.5C 39.5,299.5 34.5,299.5 29.5,299.5C 29.5,294.5 29.5,289.5 29.5,284.5 Z"/></g>
<g><path style="opacity:1" fill="#fcfcfc" d="M 31.5,273.5 C 35.4387,276.302 39.772,278.302 44.5,279.5C 45.2625,280.268 46.2625,280.768 47.5,281C 114.833,281.667 182.167,281.667 249.5,281C 251.058,280.79 252.391,280.29 253.5,279.5C 254.167,279.5 254.833,279.5 255.5,279.5C 257.85,280.11 257.517,280.444 254.5,280.5C 254.5,281.833 254.5,283.167 254.5,284.5C 249.5,284.5 244.5,284.5 239.5,284.5C 239.5,289.5 239.5,294.5 239.5,299.5C 234.5,299.5 229.5,299.5 224.5,299.5C 224.666,294.821 224.499,290.155 224,285.5C 219.263,284.531 214.43,284.197 209.5,284.5C 209.5,289.5 209.5,294.5 209.5,299.5C 204.5,299.5 199.5,299.5 194.5,299.5C 194.5,294.5 194.5,289.5 194.5,284.5C 189.5,284.5 184.5,284.5 179.5,284.5C 179.5,289.5 179.5,294.5 179.5,299.5C 174.5,299.5 169.5,299.5 164.5,299.5C 164.5,294.5 164.5,289.5 164.5,284.5C 160.154,284.334 155.821,284.501 151.5,285C 150.874,285.75 150.374,286.584 150,287.5C 149.501,291.486 149.334,295.486 149.5,299.5C 144.5,299.5 139.5,299.5 134.5,299.5C 134.5,294.5 134.5,289.5 134.5,284.5C 129.5,284.5 124.5,284.5 119.5,284.5C 119.5,289.5 119.5,294.5 119.5,299.5C 114.5,299.5 109.5,299.5 104.5,299.5C 104.666,294.821 104.499,290.155 104,285.5C 99.2633,284.531 94.43,284.197 89.5,284.5C 89.5,289.5 89.5,294.5 89.5,299.5C 84.5,299.5 79.5,299.5 74.5,299.5C 74.5,294.5 74.5,289.5 74.5,284.5C 69.5,284.5 64.5,284.5 59.5,284.5C 59.5,289.5 59.5,294.5 59.5,299.5C 54.5,299.5 49.5,299.5 44.5,299.5C 44.5,294.5 44.5,289.5 44.5,284.5C 39.5,284.5 34.5,284.5 29.5,284.5C 28.9197,280.351 29.5864,276.684 31.5,273.5 Z"/></g>
<g><path style="opacity:1" fill="#dddddd" d="M 104.5,299.5 C 99.5,299.5 94.5,299.5 89.5,299.5C 89.5,294.5 89.5,289.5 89.5,284.5C 94.43,284.197 99.2633,284.531 104,285.5C 104.499,290.155 104.666,294.821 104.5,299.5 Z"/></g>
<g><path style="opacity:1" fill="#dddddd" d="M 74.5,299.5 C 69.5,299.5 64.5,299.5 59.5,299.5C 59.5,294.5 59.5,289.5 59.5,284.5C 64.5,284.5 69.5,284.5 74.5,284.5C 74.5,289.5 74.5,294.5 74.5,299.5 Z"/></g>
<g><path style="opacity:1" fill="#dddddd" d="M 164.5,299.5 C 159.5,299.5 154.5,299.5 149.5,299.5C 149.334,295.486 149.501,291.486 150,287.5C 150.374,286.584 150.874,285.75 151.5,285C 155.821,284.501 160.154,284.334 164.5,284.5C 164.5,289.5 164.5,294.5 164.5,299.5 Z"/></g>
<g><path style="opacity:1" fill="#dddddd" d="M 194.5,299.5 C 189.5,299.5 184.5,299.5 179.5,299.5C 179.5,294.5 179.5,289.5 179.5,284.5C 184.5,284.5 189.5,284.5 194.5,284.5C 194.5,289.5 194.5,294.5 194.5,299.5 Z"/></g>
<g><path style="opacity:1" fill="#dddddd" d="M 224.5,299.5 C 219.5,299.5 214.5,299.5 209.5,299.5C 209.5,294.5 209.5,289.5 209.5,284.5C 214.43,284.197 219.263,284.531 224,285.5C 224.499,290.155 224.666,294.821 224.5,299.5 Z"/></g>
<g><path style="opacity:1" fill="#dcdcdc" d="M 254.5,284.5 C 254.5,289.5 254.5,294.5 254.5,299.5C 249.5,299.5 244.5,299.5 239.5,299.5C 239.5,294.5 239.5,289.5 239.5,284.5C 244.5,284.5 249.5,284.5 254.5,284.5 Z"/></g>
<g><path style="opacity:1" fill="#fefefe" d="M 254.5,284.5 C 259.5,284.5 264.5,284.5 269.5,284.5C 269.5,289.5 269.5,294.5 269.5,299.5C 264.5,299.5 259.5,299.5 254.5,299.5C 254.5,294.5 254.5,289.5 254.5,284.5 Z"/></g>
<g><path style="opacity:1" fill="#dddddd" d="M 269.5,284.5 C 274.5,284.5 279.5,284.5 284.5,284.5C 284.5,289.5 284.5,294.5 284.5,299.5C 279.5,299.5 274.5,299.5 269.5,299.5C 269.5,294.5 269.5,289.5 269.5,284.5 Z"/></g>
<g><path style="opacity:1" fill="#fefefe" d="M 284.5,284.5 C 289.5,284.5 294.5,284.5 299.5,284.5C 299.5,289.5 299.5,294.5 299.5,299.5C 294.5,299.5 289.5,299.5 284.5,299.5C 284.5,294.5 284.5,289.5 284.5,284.5 Z"/></g>
<g><path style="opacity:1" fill="#dddddd" d="M 134.5,299.5 C 129.5,299.5 124.5,299.5 119.5,299.5C 119.5,294.5 119.5,289.5 119.5,284.5C 124.5,284.5 129.5,284.5 134.5,284.5C 134.5,289.5 134.5,294.5 134.5,299.5 Z"/></g>
</svg>
