<?xml version="1.0" encoding="UTF-8"?>
<!DOCTYPE svg PUBLIC "-//W3C//DTD SVG 1.1//EN" "http://www.w3.org/Graphics/SVG/1.1/DTD/svg11.dtd">
<svg xmlns="http://www.w3.org/2000/svg" version="1.1" width="225px" height="225px" style="shape-rendering:geometricPrecision; text-rendering:geometricPrecision; image-rendering:optimizeQuality; fill-rule:evenodd; clip-rule:evenodd" xmlns:xlink="http://www.w3.org/1999/xlink">
<g><path style="opacity:1" fill="#fcfefe" d="M -0.5,-0.5 C 34.1667,-0.5 68.8333,-0.5 103.5,-0.5C 70.8625,2.90292 44.0292,17.2363 23,42.5C 9.5254,60.7716 1.69206,81.105 -0.5,103.5C -0.5,68.8333 -0.5,34.1667 -0.5,-0.5 Z"/></g>
<g><path style="opacity:1" fill="#fdfefe" d="M 119.5,-0.5 C 154.5,-0.5 189.5,-0.5 224.5,-0.5C 224.5,32.5 224.5,65.5 224.5,98.5C 213.087,40.4184 178.087,7.41845 119.5,-0.5 Z"/></g>
<g><path style="opacity:1" fill="#18dfec" d="M 103.5,-0.5 C 108.833,-0.5 114.167,-0.5 119.5,-0.5C 178.087,7.41845 213.087,40.4184 224.5,98.5C 224.5,105.5 224.5,112.5 224.5,119.5C 222.286,143.481 213.619,164.814 198.5,183.5C 197.252,182.666 196.585,181.333 196.5,179.5C 198.328,167.581 198.995,155.581 198.5,143.5C 197.5,143.5 196.5,143.5 195.5,143.5C 195.5,140.833 195.5,138.167 195.5,135.5C 194.167,135.5 192.833,135.5 191.5,135.5C 191.5,107.833 191.5,80.1667 191.5,52.5C 191.842,51.6618 192.508,51.3284 193.5,51.5C 194.473,51.0133 195.473,50.5133 196.5,50C 183.993,49.8308 171.66,49.3308 159.5,48.5C 162.167,48.5 164.833,48.5 167.5,48.5C 167.5,42.8333 167.5,37.1667 167.5,31.5C 173.324,31.6534 173.657,30.9867 168.5,29.5C 171.157,26.1697 170.491,25.1697 166.5,26.5C 136.849,31.0535 107.182,35.3868 77.5,39.5C 74.9616,52.1919 72.2949,64.8585 69.5,77.5C 56.945,79.5768 44.2784,80.5768 31.5,80.5C 29.5411,90.7886 28.0411,101.122 27,111.5C 33.0081,106.449 39.1748,101.949 45.5,98C 62.2792,116.113 79.7792,133.613 98,150.5C 114.366,169.028 130.866,187.362 147.5,205.5C 148.75,207.154 150.084,208.821 151.5,210.5C 151.833,211.5 152.5,212.167 153.5,212.5C 153.5,213.167 153.833,213.5 154.5,213.5C 154.5,214.167 154.5,214.833 154.5,215.5C 143.332,220.542 131.665,223.542 119.5,224.5C 112.5,224.5 105.5,224.5 98.5,224.5C 51.1602,215.994 19.6602,188.994 4,143.5C 1.94051,135.459 0.440506,127.459 -0.5,119.5C -0.5,114.167 -0.5,108.833 -0.5,103.5C 1.69206,81.105 9.5254,60.7716 23,42.5C 44.0292,17.2363 70.8625,2.90292 103.5,-0.5 Z"/></g>
<g><path style="opacity:1" fill="#0fc0cd" d="M 166.5,26.5 C 170.491,25.1697 171.157,26.1697 168.5,29.5C 173.657,30.9867 173.324,31.6534 167.5,31.5C 167.5,37.1667 167.5,42.8333 167.5,48.5C 164.833,48.5 162.167,48.5 159.5,48.5C 156.813,48.6641 154.146,48.4974 151.5,48C 152.684,46.8197 153.351,45.3197 153.5,43.5C 153.351,41.6803 152.684,40.1803 151.5,39C 153.974,38.8871 155.974,37.8871 157.5,36C 155.299,35.1751 153.466,35.6751 152,37.5C 151.536,36.9056 151.369,36.2389 151.5,35.5C 157.514,33.0456 162.514,30.0456 166.5,26.5 Z"/></g>
<g><path style="opacity:1" fill="#020203" d="M 166.5,26.5 C 162.514,30.0456 157.514,33.0456 151.5,35.5C 146.132,38.5155 140.798,41.5155 135.5,44.5C 130.735,46.3815 126.068,48.5482 121.5,51C 131.675,51.8249 141.675,51.6583 151.5,50.5C 165.677,50.1709 179.677,50.5042 193.5,51.5C 192.508,51.3284 191.842,51.6618 191.5,52.5C 183.213,55.3149 175.213,58.6483 167.5,62.5C 166.041,62.4326 164.708,62.7659 163.5,63.5C 159.849,64.6589 156.515,66.3256 153.5,68.5C 145.55,70.9248 137.884,73.9248 130.5,77.5C 127.843,77.9348 125.509,78.9348 123.5,80.5C 119.536,83.4701 116.202,87.1367 113.5,91.5C 108.787,95.9243 104.787,100.924 101.5,106.5C 106.523,115.22 111.523,123.887 116.5,132.5C 121.931,143.033 127.597,153.367 133.5,163.5C 134.774,166.76 136.44,169.76 138.5,172.5C 141.322,177.804 143.822,183.137 146,188.5C 142.021,184.852 138.355,180.852 135,176.5C 134.833,176.833 134.667,177.167 134.5,177.5C 139.392,186.615 143.725,195.948 147.5,205.5C 130.866,187.362 114.366,169.028 98,150.5C 79.7792,133.613 62.2792,116.113 45.5,98C 39.1748,101.949 33.0081,106.449 27,111.5C 28.0411,101.122 29.5411,90.7886 31.5,80.5C 44.2784,80.5768 56.945,79.5768 69.5,77.5C 72.2949,64.8585 74.9616,52.1919 77.5,39.5C 107.182,35.3868 136.849,31.0535 166.5,26.5 Z"/></g>
<g><path style="opacity:1" fill="#0b8b93" d="M 135.5,44.5 C 137.495,45.6004 140.161,46.6004 143.5,47.5C 140.938,48.6409 138.272,49.4743 135.5,50C 140.823,50.4994 146.156,50.666 151.5,50.5C 141.675,51.6583 131.675,51.8249 121.5,51C 126.068,48.5482 130.735,46.3815 135.5,44.5 Z"/></g>
<g><path style="opacity:1" fill="#0eaab5" d="M 151.5,35.5 C 151.369,36.2389 151.536,36.9056 152,37.5C 153.466,35.6751 155.299,35.1751 157.5,36C 155.974,37.8871 153.974,38.8871 151.5,39C 152.684,40.1803 153.351,41.6803 153.5,43.5C 153.351,45.3197 152.684,46.8197 151.5,48C 154.146,48.4974 156.813,48.6641 159.5,48.5C 171.66,49.3308 183.993,49.8308 196.5,50C 195.473,50.5133 194.473,51.0133 193.5,51.5C 179.677,50.5042 165.677,50.1709 151.5,50.5C 146.156,50.666 140.823,50.4994 135.5,50C 138.272,49.4743 140.938,48.6409 143.5,47.5C 140.161,46.6004 137.495,45.6004 135.5,44.5C 140.798,41.5155 146.132,38.5155 151.5,35.5 Z"/></g>
<g><path style="opacity:1" fill="#12cbd8" d="M 184.5,197.5 C 180.546,201.812 175.88,205.145 170.5,207.5C 170.062,207.565 169.728,207.399 169.5,207C 172.152,205.935 173.985,204.102 175,201.5C 178.346,202.089 178.346,201.422 175,199.5C 175.498,182.135 174.665,164.801 172.5,147.5C 172.833,144.833 173.167,142.167 173.5,139.5C 172.026,113.74 170.026,88.0733 167.5,62.5C 171.446,61.3836 175.446,60.5503 179.5,60C 178.167,61 178.167,62 179.5,63C 177.557,62.6948 175.557,62.6948 173.5,63C 176.028,73.6374 177.362,84.4707 177.5,95.5C 178.766,122.156 179.766,148.823 180.5,175.5C 181.618,183.216 182.951,190.549 184.5,197.5 Z"/></g>
<g><path style="opacity:1" fill="#11d3e0" d="M 191.5,52.5 C 191.5,80.1667 191.5,107.833 191.5,135.5C 192.833,135.5 194.167,135.5 195.5,135.5C 195.5,138.167 195.5,140.833 195.5,143.5C 196.5,143.5 197.5,143.5 198.5,143.5C 198.995,155.581 198.328,167.581 196.5,179.5C 196.585,181.333 197.252,182.666 198.5,183.5C 194.737,189.053 190.07,193.719 184.5,197.5C 182.951,190.549 181.618,183.216 180.5,175.5C 179.766,148.823 178.766,122.156 177.5,95.5C 177.362,84.4707 176.028,73.6374 173.5,63C 175.557,62.6948 177.557,62.6948 179.5,63C 178.167,62 178.167,61 179.5,60C 175.446,60.5503 171.446,61.3836 167.5,62.5C 175.213,58.6483 183.213,55.3149 191.5,52.5 Z"/></g>
<g><path style="opacity:1" fill="#0fc2cf" d="M 167.5,62.5 C 170.026,88.0733 172.026,113.74 173.5,139.5C 173.167,142.167 172.833,144.833 172.5,147.5C 174.665,164.801 175.498,182.135 175,199.5C 178.346,201.422 178.346,202.089 175,201.5C 173.985,204.102 172.152,205.935 169.5,207C 169.728,207.399 170.062,207.565 170.5,207.5C 165.753,211.207 160.419,213.874 154.5,215.5C 154.5,214.833 154.5,214.167 154.5,213.5C 158.988,212.122 163.321,210.289 167.5,208C 166.718,205.26 166.218,202.426 166,199.5C 163.834,156.841 162,114.175 160.5,71.5C 162.857,71.6633 165.19,71.4966 167.5,71C 164.5,70.6667 161.5,70.3333 158.5,70C 160.376,68.9827 162.376,68.1494 164.5,67.5C 162.42,66.4718 162.086,65.1385 163.5,63.5C 164.708,62.7659 166.041,62.4326 167.5,62.5 Z"/></g>
<g><path style="opacity:1" fill="#0a8891" d="M 130.5,77.5 C 132.117,80.51 132.95,83.8433 133,87.5C 134.434,114.517 136.101,141.517 138,168.5C 139.63,169.818 139.797,171.151 138.5,172.5C 136.44,169.76 134.774,166.76 133.5,163.5C 134.963,161.402 134.796,159.402 133,157.5C 132.667,157.833 132.333,158.167 132,158.5C 130.025,155.453 128.858,152.119 128.5,148.5C 129.027,142.846 129.361,137.179 129.5,131.5C 127.978,116.628 126.645,101.795 125.5,87C 126.308,86.6924 126.975,86.1924 127.5,85.5C 125.954,84.316 124.287,83.316 122.5,82.5C 122.863,81.8165 123.196,81.1499 123.5,80.5C 125.509,78.9348 127.843,77.9348 130.5,77.5 Z"/></g>
<g><path style="opacity:1" fill="#076268" d="M 113.5,91.5 C 114.458,94.1247 115.624,94.1247 117,91.5C 117.167,92.1667 117.333,92.8333 117.5,93.5C 115.289,102.054 114.956,110.721 116.5,119.5C 117.248,121.332 118.248,122.999 119.5,124.5C 117.609,125.311 116.276,126.644 115.5,128.5C 116.025,129.192 116.692,129.692 117.5,130C 116.748,130.671 116.414,131.504 116.5,132.5C 111.523,123.887 106.523,115.22 101.5,106.5C 104.787,100.924 108.787,95.9243 113.5,91.5 Z"/></g>
<g><path style="opacity:1" fill="#08757c" d="M 123.5,80.5 C 123.196,81.1499 122.863,81.8165 122.5,82.5C 124.287,83.316 125.954,84.316 127.5,85.5C 126.975,86.1924 126.308,86.6924 125.5,87C 126.645,101.795 127.978,116.628 129.5,131.5C 129.361,137.179 129.027,142.846 128.5,148.5C 128.858,152.119 130.025,155.453 132,158.5C 132.333,158.167 132.667,157.833 133,157.5C 134.796,159.402 134.963,161.402 133.5,163.5C 127.597,153.367 121.931,143.033 116.5,132.5C 116.414,131.504 116.748,130.671 117.5,130C 116.692,129.692 116.025,129.192 115.5,128.5C 116.276,126.644 117.609,125.311 119.5,124.5C 118.248,122.999 117.248,121.332 116.5,119.5C 114.956,110.721 115.289,102.054 117.5,93.5C 117.333,92.8333 117.167,92.1667 117,91.5C 115.624,94.1247 114.458,94.1247 113.5,91.5C 116.202,87.1367 119.536,83.4701 123.5,80.5 Z"/></g>
<g><path style="opacity:1" fill="#0b9ba4" d="M 153.5,68.5 C 152.739,69.3909 151.739,70.0576 150.5,70.5C 149.516,73.4281 149.183,76.4281 149.5,79.5C 147.78,77.3419 146.947,74.6752 147,71.5C 146.822,78.2536 145.989,84.9202 144.5,91.5C 146.499,120.821 148.166,150.154 149.5,179.5C 148.511,180.468 147.844,181.635 147.5,183C 148.159,185.462 148.493,187.962 148.5,190.5C 149.5,190.5 150.5,190.5 151.5,190.5C 151.411,196.366 151.411,202.199 151.5,208C 154.113,209.071 154.113,209.905 151.5,210.5C 150.084,208.821 148.75,207.154 147.5,205.5C 143.725,195.948 139.392,186.615 134.5,177.5C 134.667,177.167 134.833,176.833 135,176.5C 138.355,180.852 142.021,184.852 146,188.5C 143.822,183.137 141.322,177.804 138.5,172.5C 139.797,171.151 139.63,169.818 138,168.5C 136.101,141.517 134.434,114.517 133,87.5C 132.95,83.8433 132.117,80.51 130.5,77.5C 137.884,73.9248 145.55,70.9248 153.5,68.5 Z"/></g>
<g><path style="opacity:1" fill="#fcfefe" d="M 224.5,119.5 C 224.5,154.5 224.5,189.5 224.5,224.5C 189.5,224.5 154.5,224.5 119.5,224.5C 131.665,223.542 143.332,220.542 154.5,215.5C 160.419,213.874 165.753,211.207 170.5,207.5C 175.88,205.145 180.546,201.812 184.5,197.5C 190.07,193.719 194.737,189.053 198.5,183.5C 213.619,164.814 222.286,143.481 224.5,119.5 Z"/></g>
<g><path style="opacity:1" fill="#0cabb6" d="M 149.5,79.5 C 151.463,87.1124 152.797,95.1124 153.5,103.5C 154.5,124.834 155.5,146.168 156.5,167.5C 157.982,181.195 159.648,194.695 161.5,208C 158.614,209.228 155.948,210.728 153.5,212.5C 152.5,212.167 151.833,211.5 151.5,210.5C 154.113,209.905 154.113,209.071 151.5,208C 151.411,202.199 151.411,196.366 151.5,190.5C 150.5,190.5 149.5,190.5 148.5,190.5C 148.493,187.962 148.159,185.462 147.5,183C 147.844,181.635 148.511,180.468 149.5,179.5C 148.166,150.154 146.499,120.821 144.5,91.5C 145.989,84.9202 146.822,78.2536 147,71.5C 146.947,74.6752 147.78,77.3419 149.5,79.5 Z"/></g>
<g><path style="opacity:1" fill="#0eb4c1" d="M 163.5,63.5 C 162.086,65.1385 162.42,66.4718 164.5,67.5C 162.376,68.1494 160.376,68.9827 158.5,70C 161.5,70.3333 164.5,70.6667 167.5,71C 165.19,71.4966 162.857,71.6633 160.5,71.5C 162,114.175 163.834,156.841 166,199.5C 166.218,202.426 166.718,205.26 167.5,208C 163.321,210.289 158.988,212.122 154.5,213.5C 153.833,213.5 153.5,213.167 153.5,212.5C 155.948,210.728 158.614,209.228 161.5,208C 159.648,194.695 157.982,181.195 156.5,167.5C 155.5,146.168 154.5,124.834 153.5,103.5C 152.797,95.1124 151.463,87.1124 149.5,79.5C 149.183,76.4281 149.516,73.4281 150.5,70.5C 151.739,70.0576 152.739,69.3909 153.5,68.5C 156.515,66.3256 159.849,64.6589 163.5,63.5 Z"/></g>
<g><path style="opacity:1" fill="#fcfefe" d="M -0.5,119.5 C 0.440506,127.459 1.94051,135.459 4,143.5C 19.6602,188.994 51.1602,215.994 98.5,224.5C 65.5,224.5 32.5,224.5 -0.5,224.5C -0.5,189.5 -0.5,154.5 -0.5,119.5 Z"/></g>
</svg>
