<?xml version="1.0" encoding="UTF-8"?>
<!DOCTYPE svg PUBLIC "-//W3C//DTD SVG 1.1//EN" "http://www.w3.org/Graphics/SVG/1.1/DTD/svg11.dtd">
<svg xmlns="http://www.w3.org/2000/svg" version="1.1" width="674px" height="639px" style="shape-rendering:geometricPrecision; text-rendering:geometricPrecision; image-rendering:optimizeQuality; fill-rule:evenodd; clip-rule:evenodd" xmlns:xlink="http://www.w3.org/1999/xlink">
<g><path style="opacity:0.997" fill="#54dcfe" d="M 300.5,-0.5 C 318.833,-0.5 337.167,-0.5 355.5,-0.5C 470.241,10.866 559.407,64.1994 623,159.5C 640.404,187.871 653.237,218.204 661.5,250.5C 665.709,268.089 668.709,285.756 670.5,303.5C 670.169,324.34 670.503,345.007 671.5,365.5C 671.018,369.873 670.352,374.206 669.5,378.5C 668.675,374.353 668.175,370.019 668,365.5C 663.249,401.25 652.415,434.916 635.5,466.5C 634.667,392.001 634.167,317.334 634,242.5C 627.535,239.189 620.701,236.855 613.5,235.5C 599.28,230.427 584.947,225.76 570.5,221.5C 563.385,218.796 556.051,216.463 548.5,214.5C 530.386,208.129 512.053,202.129 493.5,196.5C 476.36,190.454 459.026,184.787 441.5,179.5C 421.704,172.55 401.704,166.217 381.5,160.5C 374.125,157.204 366.458,154.371 358.5,152C 337.743,146.311 317.076,140.311 296.5,134C 284.33,129.915 272.997,124.248 262.5,117C 256.833,116.333 251.167,116.333 245.5,117C 234.5,119.333 223.5,121.667 212.5,124C 210.741,125.008 209.574,126.508 209,128.5C 208.333,152.167 208.333,175.833 209,199.5C 210.333,198.167 211.667,196.833 213,195.5C 213.219,196.938 213.719,198.271 214.5,199.5C 223.182,189.48 231.516,179.147 239.5,168.5C 241.952,167.686 244.285,168.186 246.5,170C 249.672,171.752 252.672,173.752 255.5,176C 265.975,186.143 276.142,196.643 286,207.5C 298.49,232.483 311.49,257.149 325,281.5C 339.458,284.193 353.625,288.026 367.5,293C 368.333,293.833 369.167,294.667 370,295.5C 372.846,303.574 374.513,311.907 375,320.5C 376.003,348.54 377.67,376.54 380,404.5C 384.036,452.095 388.87,498.761 394.5,544.5C 408.804,564.32 422.97,584.32 437,604.5C 441.294,610.627 446.127,616.294 451.5,621.5C 424.002,630.266 396.002,635.933 367.5,638.5C 350.5,638.5 333.5,638.5 316.5,638.5C 211.026,628.857 125.86,582.524 61,499.5C 26.2158,451.318 5.71582,397.651 -0.5,338.5C -0.5,321.5 -0.5,304.5 -0.5,287.5C 14.0815,169.129 74.7481,83.6286 181.5,31C 219.494,13.7531 259.16,3.25312 300.5,-0.5 Z"/></g>
<g><path style="opacity:1" fill="#000001" d="M 381.5,160.5 C 405.012,200.203 429.012,239.536 453.5,278.5C 459.391,289.275 465.557,299.942 472,310.5C 473.667,311.5 475,312.833 476,314.5C 481.697,324.338 487.53,334.004 493.5,343.5C 501.43,356.363 509.097,369.363 516.5,382.5C 518.763,388.192 521.43,393.692 524.5,399C 524.15,400.257 523.483,400.591 522.5,400C 502.881,385.382 483.547,370.382 464.5,355C 461.833,353.333 459.167,351.667 456.5,350C 455.216,349.316 454.049,349.483 453,350.5C 450.361,393.51 447.861,436.51 445.5,479.5C 442.479,476.634 439.979,473.3 438,469.5C 431.153,455.14 424.32,440.807 417.5,426.5C 417.205,424.577 416.372,422.91 415,421.5C 413.268,425.363 411.934,429.363 411,433.5C 404.906,465.658 400.073,497.991 396.5,530.5C 395.199,534.943 394.532,539.609 394.5,544.5C 388.87,498.761 384.036,452.095 380,404.5C 377.67,376.54 376.003,348.54 375,320.5C 374.513,311.907 372.846,303.574 370,295.5C 369.167,294.667 368.333,293.833 367.5,293C 353.625,288.026 339.458,284.193 325,281.5C 311.49,257.149 298.49,232.483 286,207.5C 276.142,196.643 265.975,186.143 255.5,176C 252.672,173.752 249.672,171.752 246.5,170C 244.285,168.186 241.952,167.686 239.5,168.5C 231.516,179.147 223.182,189.48 214.5,199.5C 213.719,198.271 213.219,196.938 213,195.5C 211.667,196.833 210.333,198.167 209,199.5C 208.333,175.833 208.333,152.167 209,128.5C 209.574,126.508 210.741,125.008 212.5,124C 223.5,121.667 234.5,119.333 245.5,117C 251.167,116.333 256.833,116.333 262.5,117C 272.997,124.248 284.33,129.915 296.5,134C 317.076,140.311 337.743,146.311 358.5,152C 366.458,154.371 374.125,157.204 381.5,160.5 Z"/></g>
<g><path style="opacity:1" fill="#0d93b5" d="M 381.5,160.5 C 401.704,166.217 421.704,172.55 441.5,179.5C 441.333,205.835 441.5,232.169 442,258.5C 445,263.167 448,267.833 451,272.5C 451.333,242.833 451.667,213.167 452,183.5C 452.181,215.208 452.681,246.875 453.5,278.5C 429.012,239.536 405.012,200.203 381.5,160.5 Z"/></g>
<g><path style="opacity:1" fill="#1ba2c4" d="M 441.5,179.5 C 459.026,184.787 476.36,190.454 493.5,196.5C 493.5,245.5 493.5,294.5 493.5,343.5C 487.53,334.004 481.697,324.338 476,314.5C 475,312.833 473.667,311.5 472,310.5C 465.557,299.942 459.391,289.275 453.5,278.5C 452.681,246.875 452.181,215.208 452,183.5C 451.667,213.167 451.333,242.833 451,272.5C 448,267.833 445,263.167 442,258.5C 441.5,232.169 441.333,205.835 441.5,179.5 Z"/></g>
<g><path style="opacity:1" fill="#2bb2d4" d="M 493.5,196.5 C 512.053,202.129 530.386,208.129 548.5,214.5C 547.835,332.838 548.502,450.838 550.5,568.5C 538.397,578.394 525.397,587.061 511.5,594.5C 510.5,594.5 509.5,594.5 508.5,594.5C 508.168,527.998 508.501,461.665 509.5,395.5C 514.727,399.37 519.894,403.37 525,407.5C 525.265,405.837 524.765,404.337 523.5,403C 525.92,403.372 527.92,404.705 529.5,407C 530.167,407.667 530.833,407.667 531.5,407C 527.102,398.352 522.102,390.185 516.5,382.5C 509.097,369.363 501.43,356.363 493.5,343.5C 493.5,294.5 493.5,245.5 493.5,196.5 Z"/></g>
<g><path style="opacity:1" fill="#34bbdd" d="M 548.5,214.5 C 556.051,216.463 563.385,218.796 570.5,221.5C 570.167,330.835 570.5,440.169 571.5,549.5C 573.264,547.722 575.264,546.389 577.5,545.5C 569.407,554.262 560.407,561.929 550.5,568.5C 548.502,450.838 547.835,332.838 548.5,214.5 Z"/></g>
<g><path style="opacity:1" fill="#3ec6e8" d="M 570.5,221.5 C 584.947,225.76 599.28,230.427 613.5,235.5C 613.167,324.002 613.501,412.335 614.5,500.5C 610.297,507.55 605.464,514.216 600,520.5C 592.242,528.75 584.742,537.083 577.5,545.5C 575.264,546.389 573.264,547.722 571.5,549.5C 570.5,440.169 570.167,330.835 570.5,221.5 Z"/></g>
<g><path style="opacity:1" fill="#46cef0" d="M 613.5,235.5 C 620.701,236.855 627.535,239.189 634,242.5C 634.167,317.334 634.667,392.001 635.5,466.5C 629.499,478.511 622.499,489.845 614.5,500.5C 613.501,412.335 613.167,324.002 613.5,235.5 Z"/></g>
<g><path style="opacity:0.035" fill="#0f90a9" d="M 661.5,250.5 C 662.822,250.33 663.989,250.663 665,251.5C 666.275,253.717 667.275,256.051 668,258.5C 669.494,266.461 670.661,274.461 671.5,282.5C 670.509,289.313 670.175,296.313 670.5,303.5C 668.709,285.756 665.709,268.089 661.5,250.5 Z"/></g>
<g><path style="opacity:0.008" fill="#097bf5" d="M 671.5,282.5 C 671.575,285.206 671.908,287.873 672.5,290.5C 671.502,313.994 671.169,337.661 671.5,361.5C 671.5,362.833 671.5,364.167 671.5,365.5C 670.503,345.007 670.169,324.34 670.5,303.5C 670.175,296.313 670.509,289.313 671.5,282.5 Z"/></g>
<g><path style="opacity:0.004" fill="#143232" d="M 672.5,290.5 C 672.183,294.702 672.517,298.702 673.5,302.5C 673.5,317.5 673.5,332.5 673.5,347.5C 672.833,352.167 672.167,356.833 671.5,361.5C 671.169,337.661 671.502,313.994 672.5,290.5 Z"/></g>
<g><path style="opacity:1" fill="#005e76" d="M 516.5,382.5 C 522.102,390.185 527.102,398.352 531.5,407C 530.833,407.667 530.167,407.667 529.5,407C 527.92,404.705 525.92,403.372 523.5,403C 524.765,404.337 525.265,405.837 525,407.5C 519.894,403.37 514.727,399.37 509.5,395.5C 498.15,385.486 486.483,375.819 474.5,366.5C 469.456,361.136 463.79,356.469 457.5,352.5C 455.287,391.131 453.62,429.797 452.5,468.5C 451.833,473.681 451.167,479.015 450.5,484.5C 449.081,482.664 447.914,480.664 447,478.5C 446.617,479.056 446.117,479.389 445.5,479.5C 447.861,436.51 450.361,393.51 453,350.5C 454.049,349.483 455.216,349.316 456.5,350C 459.167,351.667 461.833,353.333 464.5,355C 483.547,370.382 502.881,385.382 522.5,400C 523.483,400.591 524.15,400.257 524.5,399C 521.43,393.692 518.763,388.192 516.5,382.5 Z"/></g>
<g><path style="opacity:1" fill="#18a0c2" d="M 474.5,366.5 C 473.167,448.167 473.167,529.833 474.5,611.5C 467.641,615.254 460.307,617.92 452.5,619.5C 452.5,569.167 452.5,518.833 452.5,468.5C 453.62,429.797 455.287,391.131 457.5,352.5C 463.79,356.469 469.456,361.136 474.5,366.5 Z"/></g>
<g><path style="opacity:1" fill="#1fa7c9" d="M 474.5,366.5 C 486.483,375.819 498.15,385.486 509.5,395.5C 508.501,461.665 508.168,527.998 508.5,594.5C 509.5,594.5 510.5,594.5 511.5,594.5C 504.031,599.071 496.364,603.404 488.5,607.5C 488.44,606.957 488.107,606.624 487.5,606.5C 483.246,608.464 478.912,610.131 474.5,611.5C 473.167,529.833 473.167,448.167 474.5,366.5 Z"/></g>
<g><path style="opacity:0.063" fill="#0588a9" d="M 669.5,378.5 C 658.3,445.26 627.634,500.927 577.5,545.5C 584.742,537.083 592.242,528.75 600,520.5C 605.464,514.216 610.297,507.55 614.5,500.5C 622.499,489.845 629.499,478.511 635.5,466.5C 652.415,434.916 663.249,401.25 668,365.5C 668.175,370.019 668.675,374.353 669.5,378.5 Z"/></g>
<g><path style="opacity:1" fill="#007794" d="M 417.5,426.5 C 416.165,431.66 414.999,436.994 414,442.5C 409.878,476.917 404.878,511.251 399,545.5C 398.818,540.253 397.984,535.253 396.5,530.5C 400.073,497.991 404.906,465.658 411,433.5C 411.934,429.363 413.268,425.363 415,421.5C 416.372,422.91 417.205,424.577 417.5,426.5 Z"/></g>
<g><path style="opacity:1" fill="#0f97b9" d="M 417.5,426.5 C 424.32,440.807 431.153,455.14 438,469.5C 439.979,473.3 442.479,476.634 445.5,479.5C 446.117,479.389 446.617,479.056 447,478.5C 447.914,480.664 449.081,482.664 450.5,484.5C 451.167,479.015 451.833,473.681 452.5,468.5C 452.5,518.833 452.5,569.167 452.5,619.5C 460.307,617.92 467.641,615.254 474.5,611.5C 478.912,610.131 483.246,608.464 487.5,606.5C 488.107,606.624 488.44,606.957 488.5,607.5C 480.193,611.319 471.859,615.153 463.5,619C 459.687,620.772 455.687,621.605 451.5,621.5C 446.127,616.294 441.294,610.627 437,604.5C 422.97,584.32 408.804,564.32 394.5,544.5C 394.532,539.609 395.199,534.943 396.5,530.5C 397.984,535.253 398.818,540.253 399,545.5C 404.878,511.251 409.878,476.917 414,442.5C 414.999,436.994 416.165,431.66 417.5,426.5 Z"/></g>
</svg>
