<?xml version="1.0" encoding="UTF-8"?>
<!DOCTYPE svg PUBLIC "-//W3C//DTD SVG 1.1//EN" "http://www.w3.org/Graphics/SVG/1.1/DTD/svg11.dtd">
<svg xmlns="http://www.w3.org/2000/svg" version="1.1" width="360px" height="360px" style="shape-rendering:geometricPrecision; text-rendering:geometricPrecision; image-rendering:optimizeQuality; fill-rule:evenodd; clip-rule:evenodd" xmlns:xlink="http://www.w3.org/1999/xlink">
<g><path style="opacity:1" fill="#f6f6f6" d="M -0.5,-0.5 C 119.5,-0.5 239.5,-0.5 359.5,-0.5C 359.5,109.5 359.5,219.5 359.5,329.5C 354.5,329.5 349.5,329.5 344.5,329.5C 344.5,324.5 344.5,319.5 344.5,314.5C 339.5,314.5 334.5,314.5 329.5,314.5C 329.5,309.5 329.5,304.5 329.5,299.5C 324.5,299.5 319.5,299.5 314.5,299.5C 314.5,294.5 314.5,289.5 314.5,284.5C 309.5,284.5 304.5,284.5 299.5,284.5C 299.5,279.5 299.5,274.5 299.5,269.5C 294.5,269.5 289.5,269.5 284.5,269.5C 284.5,264.5 284.5,259.5 284.5,254.5C 281.5,254.5 278.5,254.5 275.5,254.5C 274.772,241.357 274.105,225.691 273.5,207.5C 273.667,171.498 273.5,135.498 273,99.5C 272.246,96.3156 270.746,93.6489 268.5,91.5C 265.367,87.9333 261.367,85.9333 256.5,85.5C 255.737,84.7321 254.737,84.2321 253.5,84C 254.451,80.9433 254.784,77.7766 254.5,74.5C 249.5,74.5 244.5,74.5 239.5,74.5C 239.216,77.7766 239.549,80.9433 240.5,84C 234.833,84.6667 229.167,84.6667 223.5,84C 224.451,80.9433 224.784,77.7766 224.5,74.5C 219.5,74.5 214.5,74.5 209.5,74.5C 209.216,77.7766 209.549,80.9433 210.5,84C 204.833,84.6667 199.167,84.6667 193.5,84C 194.451,80.9433 194.784,77.7766 194.5,74.5C 189.5,74.5 184.5,74.5 179.5,74.5C 179.216,77.7766 179.549,80.9433 180.5,84C 174.833,84.6667 169.167,84.6667 163.5,84C 164.451,80.9433 164.784,77.7766 164.5,74.5C 159.5,74.5 154.5,74.5 149.5,74.5C 149.216,77.7766 149.549,80.9433 150.5,84C 144.833,84.6667 139.167,84.6667 133.5,84C 134.451,80.9433 134.784,77.7766 134.5,74.5C 129.5,74.5 124.5,74.5 119.5,74.5C 119.216,77.7766 119.549,80.9433 120.5,84C 115.177,84.4994 109.844,84.666 104.5,84.5C 104.5,81.1667 104.5,77.8333 104.5,74.5C 99.5,74.5 94.5,74.5 89.5,74.5C 89.2175,79.9265 89.5509,85.2599 90.5,90.5C 87.9689,93.5703 85.9689,96.9036 84.5,100.5C 83.4789,100.899 83.1455,102.233 83.5,104.5C 80.5,104.5 77.5,104.5 74.5,104.5C 74.5,109.5 74.5,114.5 74.5,119.5C 77.5,119.5 80.5,119.5 83.5,119.5C 83.5,124.5 83.5,129.5 83.5,134.5C 80.5,134.5 77.5,134.5 74.5,134.5C 74.5,139.5 74.5,144.5 74.5,149.5C 77.5,149.5 80.5,149.5 83.5,149.5C 83.5,154.5 83.5,159.5 83.5,164.5C 80.5,164.5 77.5,164.5 74.5,164.5C 74.5,169.5 74.5,174.5 74.5,179.5C 77.5,179.5 80.5,179.5 83.5,179.5C 83.5,184.5 83.5,189.5 83.5,194.5C 80.5,194.5 77.5,194.5 74.5,194.5C 74.5,199.5 74.5,204.5 74.5,209.5C 77.5,209.5 80.5,209.5 83.5,209.5C 83.5,214.5 83.5,219.5 83.5,224.5C 80.5,224.5 77.5,224.5 74.5,224.5C 74.5,229.5 74.5,234.5 74.5,239.5C 77.5,239.5 80.5,239.5 83.5,239.5C 83.5,244.5 83.5,249.5 83.5,254.5C 80.5,254.5 77.5,254.5 74.5,254.5C 74.5,259.5 74.5,264.5 74.5,269.5C 79.8333,269.5 85.1667,269.5 90.5,269.5C 93.4309,271.797 96.7642,273.297 100.5,274C 152.832,274.5 205.166,274.667 257.5,274.5C 258.552,274.351 259.552,274.517 260.5,275C 258.527,275.495 256.527,275.662 254.5,275.5C 254.5,278.5 254.5,281.5 254.5,284.5C 259.5,284.5 264.5,284.5 269.5,284.5C 269.5,289.5 269.5,294.5 269.5,299.5C 274.5,299.5 279.5,299.5 284.5,299.5C 284.5,304.5 284.5,309.5 284.5,314.5C 289.5,314.5 294.5,314.5 299.5,314.5C 299.5,319.5 299.5,324.5 299.5,329.5C 304.5,329.5 309.5,329.5 314.5,329.5C 314.5,334.5 314.5,339.5 314.5,344.5C 319.5,344.5 324.5,344.5 329.5,344.5C 329.5,349.5 329.5,354.5 329.5,359.5C 219.5,359.5 109.5,359.5 -0.5,359.5C -0.5,239.5 -0.5,119.5 -0.5,-0.5 Z"/></g>
<g><path style="opacity:1" fill="#eeeeee" d="M 256.5,85.5 C 203.832,85.3333 151.166,85.5 98.5,86C 95.3515,86.7384 92.6848,88.2384 90.5,90.5C 89.5509,85.2599 89.2175,79.9265 89.5,74.5C 94.5,74.5 99.5,74.5 104.5,74.5C 104.5,77.8333 104.5,81.1667 104.5,84.5C 109.844,84.666 115.177,84.4994 120.5,84C 119.549,80.9433 119.216,77.7766 119.5,74.5C 124.5,74.5 129.5,74.5 134.5,74.5C 134.784,77.7766 134.451,80.9433 133.5,84C 139.167,84.6667 144.833,84.6667 150.5,84C 149.549,80.9433 149.216,77.7766 149.5,74.5C 154.5,74.5 159.5,74.5 164.5,74.5C 164.784,77.7766 164.451,80.9433 163.5,84C 169.167,84.6667 174.833,84.6667 180.5,84C 179.549,80.9433 179.216,77.7766 179.5,74.5C 184.5,74.5 189.5,74.5 194.5,74.5C 194.784,77.7766 194.451,80.9433 193.5,84C 199.167,84.6667 204.833,84.6667 210.5,84C 209.549,80.9433 209.216,77.7766 209.5,74.5C 214.5,74.5 219.5,74.5 224.5,74.5C 224.784,77.7766 224.451,80.9433 223.5,84C 229.167,84.6667 234.833,84.6667 240.5,84C 239.549,80.9433 239.216,77.7766 239.5,74.5C 244.5,74.5 249.5,74.5 254.5,74.5C 254.784,77.7766 254.451,80.9433 253.5,84C 254.737,84.2321 255.737,84.7321 256.5,85.5 Z"/></g>
<g><path style="opacity:1" fill="#256fc0" d="M 256.5,85.5 C 261.367,85.9333 265.367,87.9333 268.5,91.5C 241.866,117.467 215.533,143.8 189.5,170.5C 174.035,155.535 158.701,140.368 143.5,125C 134.929,122.285 129.596,125.285 127.5,134C 128.255,136.175 129.088,138.341 130,140.5C 143.167,153.667 156.333,166.833 169.5,180C 156,193.5 142.5,207 129,220.5C 128.253,223.924 128.42,227.257 129.5,230.5C 115.885,242.447 102.885,255.114 90.5,268.5C 87.3932,265.96 85.5599,262.627 85,258.5C 84.5,205.834 84.3333,153.168 84.5,100.5C 85.9689,96.9036 87.9689,93.5703 90.5,90.5C 92.6848,88.2384 95.3515,86.7384 98.5,86C 151.166,85.5 203.832,85.3333 256.5,85.5 Z"/></g>
<g><path style="opacity:1" fill="#1b5390" d="M 268.5,91.5 C 270.746,93.6489 272.246,96.3156 273,99.5C 273.5,135.498 273.667,171.498 273.5,207.5C 273.667,225.17 273.5,242.836 273,260.5C 272.484,263.547 270.984,265.88 268.5,267.5C 254.858,255.526 241.858,242.859 229.5,229.5C 231.107,223.824 229.44,219.324 224.5,216C 212.171,215.5 199.838,215.333 187.5,215.5C 196.324,214.67 205.324,214.17 214.5,214C 205.662,206.328 197.328,198.162 189.5,189.5C 196.017,183.126 196.017,176.792 189.5,170.5C 215.533,143.8 241.866,117.467 268.5,91.5 Z"/></g>
<g><path style="opacity:1" fill="#fefefe" d="M 84.5,100.5 C 84.3333,153.168 84.5,205.834 85,258.5C 85.5599,262.627 87.3932,265.96 90.5,268.5C 90.5,268.833 90.5,269.167 90.5,269.5C 85.1667,269.5 79.8333,269.5 74.5,269.5C 74.5,264.5 74.5,259.5 74.5,254.5C 77.5,254.5 80.5,254.5 83.5,254.5C 83.5,249.5 83.5,244.5 83.5,239.5C 80.5,239.5 77.5,239.5 74.5,239.5C 74.5,234.5 74.5,229.5 74.5,224.5C 77.5,224.5 80.5,224.5 83.5,224.5C 83.5,219.5 83.5,214.5 83.5,209.5C 80.5,209.5 77.5,209.5 74.5,209.5C 74.5,204.5 74.5,199.5 74.5,194.5C 77.5,194.5 80.5,194.5 83.5,194.5C 83.5,189.5 83.5,184.5 83.5,179.5C 80.5,179.5 77.5,179.5 74.5,179.5C 74.5,174.5 74.5,169.5 74.5,164.5C 77.5,164.5 80.5,164.5 83.5,164.5C 83.5,159.5 83.5,154.5 83.5,149.5C 80.5,149.5 77.5,149.5 74.5,149.5C 74.5,144.5 74.5,139.5 74.5,134.5C 77.5,134.5 80.5,134.5 83.5,134.5C 83.5,129.5 83.5,124.5 83.5,119.5C 80.5,119.5 77.5,119.5 74.5,119.5C 74.5,114.5 74.5,109.5 74.5,104.5C 77.5,104.5 80.5,104.5 83.5,104.5C 83.1455,102.233 83.4789,100.899 84.5,100.5 Z"/></g>
<g><path style="opacity:1" fill="#fbfcfd" d="M 189.5,170.5 C 196.017,176.792 196.017,183.126 189.5,189.5C 175.035,203.465 160.701,217.631 146.5,232C 140.204,237.072 134.538,236.572 129.5,230.5C 128.42,227.257 128.253,223.924 129,220.5C 142.5,207 156,193.5 169.5,180C 156.333,166.833 143.167,153.667 130,140.5C 129.088,138.341 128.255,136.175 127.5,134C 129.596,125.285 134.929,122.285 143.5,125C 158.701,140.368 174.035,155.535 189.5,170.5 Z"/></g>
<g><path style="opacity:1" fill="#133f6e" d="M 189.5,189.5 C 197.328,198.162 205.662,206.328 214.5,214C 205.324,214.17 196.324,214.67 187.5,215.5C 181.221,215.779 177.888,219.112 177.5,225.5C 177.78,230.242 180.113,233.408 184.5,235C 197.5,235.667 210.5,235.667 223.5,235C 225.996,233.669 227.996,231.836 229.5,229.5C 241.858,242.859 254.858,255.526 268.5,267.5C 265.668,271.086 262.001,273.42 257.5,274.5C 205.166,274.667 152.832,274.5 100.5,274C 96.7642,273.297 93.4309,271.797 90.5,269.5C 90.5,269.167 90.5,268.833 90.5,268.5C 102.885,255.114 115.885,242.447 129.5,230.5C 134.538,236.572 140.204,237.072 146.5,232C 160.701,217.631 175.035,203.465 189.5,189.5 Z"/></g>
<g><path style="opacity:1" fill="#fdfdfe" d="M 187.5,215.5 C 199.838,215.333 212.171,215.5 224.5,216C 229.44,219.324 231.107,223.824 229.5,229.5C 227.996,231.836 225.996,233.669 223.5,235C 210.5,235.667 197.5,235.667 184.5,235C 180.113,233.408 177.78,230.242 177.5,225.5C 177.888,219.112 181.221,215.779 187.5,215.5 Z"/></g>
<g><path style="opacity:1" fill="#f3f3f3" d="M 273.5,207.5 C 274.105,225.691 274.772,241.357 275.5,254.5C 278.5,254.5 281.5,254.5 284.5,254.5C 284.5,259.5 284.5,264.5 284.5,269.5C 289.5,269.5 294.5,269.5 299.5,269.5C 299.5,274.5 299.5,279.5 299.5,284.5C 304.5,284.5 309.5,284.5 314.5,284.5C 314.5,289.5 314.5,294.5 314.5,299.5C 319.5,299.5 324.5,299.5 329.5,299.5C 329.5,304.5 329.5,309.5 329.5,314.5C 334.5,314.5 339.5,314.5 344.5,314.5C 344.5,319.5 344.5,324.5 344.5,329.5C 349.5,329.5 354.5,329.5 359.5,329.5C 359.5,339.5 359.5,349.5 359.5,359.5C 349.5,359.5 339.5,359.5 329.5,359.5C 329.5,354.5 329.5,349.5 329.5,344.5C 324.5,344.5 319.5,344.5 314.5,344.5C 314.5,339.5 314.5,334.5 314.5,329.5C 309.5,329.5 304.5,329.5 299.5,329.5C 299.5,324.5 299.5,319.5 299.5,314.5C 294.5,314.5 289.5,314.5 284.5,314.5C 284.5,309.5 284.5,304.5 284.5,299.5C 279.5,299.5 274.5,299.5 269.5,299.5C 269.5,294.5 269.5,289.5 269.5,284.5C 264.5,284.5 259.5,284.5 254.5,284.5C 254.5,281.5 254.5,278.5 254.5,275.5C 256.527,275.662 258.527,275.495 260.5,275C 259.552,274.517 258.552,274.351 257.5,274.5C 262.001,273.42 265.668,271.086 268.5,267.5C 270.984,265.88 272.484,263.547 273,260.5C 273.5,242.836 273.667,225.17 273.5,207.5 Z"/></g>
</svg>
