<?xml version="1.0" encoding="UTF-8"?>
<!DOCTYPE svg PUBLIC "-//W3C//DTD SVG 1.1//EN" "http://www.w3.org/Graphics/SVG/1.1/DTD/svg11.dtd">
<svg xmlns="http://www.w3.org/2000/svg" version="1.1" width="256px" height="256px" style="shape-rendering:geometricPrecision; text-rendering:geometricPrecision; image-rendering:optimizeQuality; fill-rule:evenodd; clip-rule:evenodd" xmlns:xlink="http://www.w3.org/1999/xlink">
<g><path style="opacity:0.684" fill="#c0dffb" d="M 167.5,37.5 C 167.5,38.1667 167.5,38.8333 167.5,39.5C 164.833,39.5 162.167,39.5 159.5,39.5C 145.833,39.5 132.167,39.5 118.5,39.5C 97.1641,39.3334 75.8307,39.5 54.5,40C 52.04,41.4578 49.8734,43.2911 48,45.5C 39.5768,77.9406 32.0768,110.607 25.5,143.5C 24.6618,143.842 24.3284,144.508 24.5,145.5C 23.5,145.5 22.5,145.5 21.5,145.5C 29.3481,111.44 37.5148,77.4402 46,43.5C 47.9384,40.8941 50.4384,39.0608 53.5,38C 91.4985,37.5 129.499,37.3333 167.5,37.5 Z"/></g>
<g><path style="opacity:0.711" fill="#afcdf9" d="M 167.5,37.5 C 192.923,37.0188 218.256,37.5188 243.5,39C 245.917,41.4794 246.917,44.4794 246.5,48C 245.052,57.9554 243.052,67.7887 240.5,77.5C 239.609,78.1098 238.609,78.4431 237.5,78.5C 238.294,75.198 238.96,71.8647 239.5,68.5C 241.962,60.7353 243.462,52.7353 244,44.5C 243.623,43.0577 242.79,42.0577 241.5,41.5C 241.082,40.7784 240.416,40.2784 239.5,40C 231.841,39.5003 224.174,39.3336 216.5,39.5C 206.833,39.5 197.167,39.5 187.5,39.5C 180.833,39.5 174.167,39.5 167.5,39.5C 167.5,38.8333 167.5,38.1667 167.5,37.5 Z"/></g>
<g><path style="opacity:1" fill="#2b435f" d="M 118.5,39.5 C 112.099,46.5619 106.099,53.8953 100.5,61.5C 94.0421,55.91 87.8755,56.2433 82,62.5C 79.3434,68.414 80.5101,73.414 85.5,77.5C 65.8693,99.7992 45.8693,121.799 25.5,143.5C 32.0768,110.607 39.5768,77.9406 48,45.5C 49.8734,43.2911 52.04,41.4578 54.5,40C 75.8307,39.5 97.1641,39.3334 118.5,39.5 Z"/></g>
<g><path style="opacity:1" fill="#243850" d="M 118.5,39.5 C 132.167,39.5 145.833,39.5 159.5,39.5C 148.208,52.6287 136.708,65.6287 125,78.5C 123.579,80.4048 122.412,82.4048 121.5,84.5C 114.159,77.1588 107.159,69.4921 100.5,61.5C 106.099,53.8953 112.099,46.5619 118.5,39.5 Z"/></g>
<g><path style="opacity:1" fill="#1e2f43" d="M 159.5,39.5 C 162.167,39.5 164.833,39.5 167.5,39.5C 174.167,39.5 180.833,39.5 187.5,39.5C 170.392,59.395 153.059,79.0617 135.5,98.5C 130.5,94.1667 125.833,89.5 121.5,84.5C 122.412,82.4048 123.579,80.4048 125,78.5C 136.708,65.6287 148.208,52.6287 159.5,39.5 Z"/></g>
<g><path style="opacity:1" fill="#182636" d="M 187.5,39.5 C 197.167,39.5 206.833,39.5 216.5,39.5C 194.726,64.7283 172.726,89.7283 150.5,114.5C 144.795,109.796 139.795,104.463 135.5,98.5C 153.059,79.0617 170.392,59.395 187.5,39.5 Z"/></g>
<g><path style="opacity:1" fill="#121c29" d="M 216.5,39.5 C 224.174,39.3336 231.841,39.5003 239.5,40C 240.416,40.2784 241.082,40.7784 241.5,41.5C 239.284,42.2026 237.451,43.5359 236,45.5C 198.347,87.5214 161.18,129.855 124.5,172.5C 117.627,174.224 115.127,178.557 117,185.5C 117.997,187.323 119.164,188.99 120.5,190.5C 117.944,191.543 115.777,193.21 114,195.5C 108.245,202.044 102.745,208.711 97.5,215.5C 88.5,215.5 79.5,215.5 70.5,215.5C 86.0771,197.989 101.41,180.322 116.5,162.5C 129.455,153.385 142.288,144.051 155,134.5C 157.999,130.113 158.165,125.78 155.5,121.5C 153.588,119.343 151.921,117.009 150.5,114.5C 172.726,89.7283 194.726,64.7283 216.5,39.5 Z"/></g>
<g><path style="opacity:1" fill="#0e161f" d="M 241.5,41.5 C 242.79,42.0577 243.623,43.0577 244,44.5C 243.462,52.7353 241.962,60.7353 239.5,68.5C 239.607,66.6214 239.107,66.2881 238,67.5C 206.958,102.371 176.125,137.371 145.5,172.5C 138.5,172.5 131.5,172.5 124.5,172.5C 161.18,129.855 198.347,87.5214 236,45.5C 237.451,43.5359 239.284,42.2026 241.5,41.5 Z"/></g>
<g><path style="opacity:1" fill="#fcfcfc" d="M 100.5,61.5 C 107.159,69.4921 114.159,77.1588 121.5,84.5C 125.833,89.5 130.5,94.1667 135.5,98.5C 139.795,104.463 144.795,109.796 150.5,114.5C 151.921,117.009 153.588,119.343 155.5,121.5C 156.216,126.351 154.883,130.518 151.5,134C 123.888,153.279 96.5543,172.946 69.5,193C 66.6492,194.289 63.6492,194.789 60.5,194.5C 55.0376,193.197 52.3709,189.697 52.5,184C 52.5419,182.033 53.0419,180.199 54,178.5C 78.5663,159.801 103.4,141.467 128.5,123.5C 121.847,115.514 114.847,107.847 107.5,100.5C 100.139,92.8069 92.8057,85.1402 85.5,77.5C 80.5101,73.414 79.3434,68.414 82,62.5C 87.8755,56.2433 94.0421,55.91 100.5,61.5 Z"/></g>
<g><path style="opacity:1" fill="#0a1016" d="M 239.5,68.5 C 238.96,71.8647 238.294,75.198 237.5,78.5C 236.533,83.7119 235.2,88.7119 233.5,93.5C 232.721,91.0728 231.554,91.0728 230,93.5C 206.997,120.001 183.83,146.335 160.5,172.5C 155.5,172.5 150.5,172.5 145.5,172.5C 176.125,137.371 206.958,102.371 238,67.5C 239.107,66.2881 239.607,66.6214 239.5,68.5 Z"/></g>
<g><path style="opacity:0.688" fill="#a3c1f5" d="M 240.5,77.5 C 230.572,122.306 220.072,166.973 209,211.5C 207.062,214.106 204.562,215.939 201.5,217C 172.502,217.5 143.502,217.667 114.5,217.5C 114.833,216.833 115.167,216.167 115.5,215.5C 120.167,215.5 124.833,215.5 129.5,215.5C 152.836,215.667 176.169,215.5 199.5,215C 202.562,213.939 205.062,212.106 207,209.5C 216.78,171.048 225.613,132.381 233.5,93.5C 235.2,88.7119 236.533,83.7119 237.5,78.5C 238.609,78.4431 239.609,78.1098 240.5,77.5 Z"/></g>
<g><path style="opacity:1" fill="#243850" d="M 85.5,77.5 C 92.8057,85.1402 100.139,92.8069 107.5,100.5C 104.944,101.543 102.777,103.21 101,105.5C 70.968,139.694 40.8013,173.694 10.5,207.5C 15.167,186.832 19.8336,166.166 24.5,145.5C 24.3284,144.508 24.6618,143.842 25.5,143.5C 45.8693,121.799 65.8693,99.7992 85.5,77.5 Z"/></g>
<g><path style="opacity:1" fill="#1f2f43" d="M 107.5,100.5 C 114.847,107.847 121.847,115.514 128.5,123.5C 103.4,141.467 78.5663,159.801 54,178.5C 53.0419,180.199 52.5419,182.033 52.5,184C 52.3709,189.697 55.0376,193.197 60.5,194.5C 62.2789,196.344 64.6122,197.01 67.5,196.5C 65.7078,197.309 63.7078,197.809 61.5,198C 56.2901,203.706 51.2901,209.539 46.5,215.5C 35.8281,215.667 25.1615,215.5 14.5,215C 11.9756,213.117 10.6423,210.617 10.5,207.5C 40.8013,173.694 70.968,139.694 101,105.5C 102.777,103.21 104.944,101.543 107.5,100.5 Z"/></g>
<g><path style="opacity:1" fill="#020405" d="M 233.5,93.5 C 225.613,132.381 216.78,171.048 207,209.5C 205.062,212.106 202.562,213.939 199.5,215C 176.169,215.5 152.836,215.667 129.5,215.5C 135.833,208.167 142.167,200.833 148.5,193.5C 157.173,193.666 165.84,193.5 174.5,193C 180.025,190.081 181.858,185.581 180,179.5C 179.617,178.944 179.117,178.611 178.5,178.5C 176.996,176.164 174.996,174.331 172.5,173C 168.514,172.501 164.514,172.334 160.5,172.5C 183.83,146.335 206.997,120.001 230,93.5C 231.554,91.0728 232.721,91.0728 233.5,93.5 Z"/></g>
<g><path style="opacity:0.649" fill="#b5d4f9" d="M 21.5,145.5 C 22.5,145.5 23.5,145.5 24.5,145.5C 19.8336,166.166 15.167,186.832 10.5,207.5C 10.6423,210.617 11.9756,213.117 14.5,215C 25.1615,215.5 35.8281,215.667 46.5,215.5C 54.5,215.5 62.5,215.5 70.5,215.5C 79.5,215.5 88.5,215.5 97.5,215.5C 103.5,215.5 109.5,215.5 115.5,215.5C 115.167,216.167 114.833,216.833 114.5,217.5C 80.08,217.986 45.7467,217.486 11.5,216C 10.2986,215.097 9.46524,213.931 9,212.5C 8.33333,208.833 8.33333,205.167 9,201.5C 13.3609,182.86 17.5276,164.194 21.5,145.5 Z"/></g>
<g><path style="opacity:1" fill="#304f7f" d="M 155.5,121.5 C 158.165,125.78 157.999,130.113 155,134.5C 142.288,144.051 129.455,153.385 116.5,162.5C 101.379,173.115 86.3785,183.948 71.5,195C 70.255,195.791 68.9217,196.291 67.5,196.5C 64.6122,197.01 62.2789,196.344 60.5,194.5C 63.6492,194.789 66.6492,194.289 69.5,193C 96.5543,172.946 123.888,153.279 151.5,134C 154.883,130.518 156.216,126.351 155.5,121.5 Z"/></g>
<g><path style="opacity:1" fill="#fdfdfd" d="M 124.5,172.5 C 131.5,172.5 138.5,172.5 145.5,172.5C 150.5,172.5 155.5,172.5 160.5,172.5C 164.514,172.334 168.514,172.501 172.5,173C 174.996,174.331 176.996,176.164 178.5,178.5C 179.564,184.204 177.564,188.371 172.5,191C 155.837,191.5 139.17,191.667 122.5,191.5C 121.833,191.167 121.167,190.833 120.5,190.5C 119.164,188.99 117.997,187.323 117,185.5C 115.127,178.557 117.627,174.224 124.5,172.5 Z"/></g>
<g><path style="opacity:1" fill="#162332" d="M 116.5,162.5 C 101.41,180.322 86.0771,197.989 70.5,215.5C 62.5,215.5 54.5,215.5 46.5,215.5C 51.2901,209.539 56.2901,203.706 61.5,198C 63.7078,197.809 65.7078,197.309 67.5,196.5C 68.9217,196.291 70.255,195.791 71.5,195C 86.3785,183.948 101.379,173.115 116.5,162.5 Z"/></g>
<g><path style="opacity:1" fill="#254575" d="M 178.5,178.5 C 179.117,178.611 179.617,178.944 180,179.5C 181.858,185.581 180.025,190.081 174.5,193C 165.84,193.5 157.173,193.666 148.5,193.5C 140.16,193.666 131.827,193.5 123.5,193C 122.944,192.617 122.611,192.117 122.5,191.5C 139.17,191.667 155.837,191.5 172.5,191C 177.564,188.371 179.564,184.204 178.5,178.5 Z"/></g>
<g><path style="opacity:1" fill="#090f15" d="M 120.5,190.5 C 121.167,190.833 121.833,191.167 122.5,191.5C 122.611,192.117 122.944,192.617 123.5,193C 131.827,193.5 140.16,193.666 148.5,193.5C 142.167,200.833 135.833,208.167 129.5,215.5C 124.833,215.5 120.167,215.5 115.5,215.5C 109.5,215.5 103.5,215.5 97.5,215.5C 102.745,208.711 108.245,202.044 114,195.5C 115.777,193.21 117.944,191.543 120.5,190.5 Z"/></g>
</svg>
